G04 #@! TF.FileFunction,Profile,NP*
%FSLAX46Y46*%
G04 Gerber Fmt 4.6, Leading zero omitted, Abs format (unit mm)*
G04 Created by KiCad (PCBNEW 4.0.7) date 07/12/18 18:39:29*
%MOMM*%
%LPD*%
G01*
G04 APERTURE LIST*
%ADD10C,0.100000*%
G04 APERTURE END LIST*
D10*
X211974503Y-168959851D02*
X211996561Y-168955245D01*
X210020576Y-169055135D02*
X210098262Y-169065622D01*
X209865675Y-169030528D02*
X209943042Y-169043437D01*
X209329958Y-168906362D02*
X209405762Y-168927714D01*
X211951312Y-168964633D02*
X211974503Y-168959851D01*
X211818309Y-168990947D02*
X211847186Y-168985385D01*
X211193817Y-169084663D02*
X211272067Y-169076854D01*
X211115505Y-169091244D02*
X211193817Y-169084663D01*
X210176086Y-169074897D02*
X210254032Y-169082958D01*
X209558153Y-168966809D02*
X209634713Y-168984549D01*
X210488471Y-169099850D02*
X210566768Y-169103047D01*
X210410239Y-169095436D02*
X210488471Y-169099850D01*
X212196280Y-168910718D02*
X212199248Y-168910091D01*
X212173262Y-168916024D02*
X212180691Y-168914291D01*
X212037280Y-168946584D02*
X212055944Y-168942543D01*
X211874924Y-168979967D02*
X211901523Y-168974698D01*
X211847186Y-168985385D02*
X211874924Y-168979967D01*
X210254032Y-169082958D02*
X210332089Y-169089805D01*
X210958749Y-169100730D02*
X211037144Y-169096600D01*
X210801915Y-169105321D02*
X210880335Y-169103637D01*
X209634713Y-168984549D02*
X209711496Y-169001083D01*
X209943042Y-169043437D02*
X210020576Y-169055135D01*
X209711496Y-169001083D02*
X209788488Y-169016410D01*
X211757130Y-169002472D02*
X211788290Y-168996645D01*
X209788488Y-169016410D02*
X209865675Y-169030528D01*
X211621046Y-169026952D02*
X211656786Y-169020670D01*
X211656786Y-169020670D02*
X211691379Y-169014491D01*
X210566768Y-169103047D02*
X210645118Y-169105025D01*
X209405762Y-168927714D02*
X209481831Y-168947864D01*
X212132354Y-168925491D02*
X212144263Y-168922757D01*
X211350241Y-169067818D02*
X211428323Y-169057553D01*
X210645118Y-169105025D02*
X210723505Y-169105783D01*
X211788290Y-168996645D02*
X211818309Y-168990947D01*
X212354073Y-168876631D02*
X212430973Y-168858104D01*
X212089886Y-168935072D02*
X212105167Y-168931655D01*
X212276827Y-168893962D02*
X212354073Y-168876631D01*
X212199248Y-168910091D02*
X212276827Y-168893962D01*
X212155049Y-168920263D02*
X212164716Y-168918017D01*
X212144263Y-168922757D02*
X212155049Y-168920263D01*
X212073479Y-168938704D02*
X212089886Y-168935072D01*
X211901523Y-168974698D02*
X211926985Y-168969584D01*
X210723505Y-169105783D02*
X210801915Y-169105321D01*
X211037144Y-169096600D02*
X211115505Y-169091244D01*
X210098262Y-169065622D02*
X210176086Y-169074897D01*
X212192199Y-168911632D02*
X212196280Y-168910718D01*
X212187003Y-168912825D02*
X212192199Y-168911632D01*
X212180691Y-168914291D02*
X212187003Y-168912825D01*
X212164716Y-168918017D02*
X212173262Y-168916024D01*
X212055944Y-168942543D02*
X212073479Y-168938704D01*
X211584158Y-169033331D02*
X211621046Y-169026952D01*
X211506301Y-169046057D02*
X211584158Y-169033331D01*
X211272067Y-169076854D02*
X211350241Y-169067818D01*
X210332089Y-169089805D02*
X210410239Y-169095436D01*
X211996561Y-168955245D02*
X212017486Y-168950820D01*
X212119323Y-168928460D02*
X212132354Y-168925491D01*
X211428323Y-169057553D02*
X211506301Y-169046057D01*
X210880335Y-169103637D02*
X210958749Y-169100730D01*
X211724827Y-169008423D02*
X211757130Y-169002472D01*
X211926985Y-168969584D02*
X211951312Y-168964633D01*
X209481831Y-168947864D02*
X209558153Y-168966809D01*
X212105167Y-168931655D02*
X212119323Y-168928460D01*
X211691379Y-169014491D02*
X211724827Y-169008423D01*
X212017486Y-168950820D02*
X212037280Y-168946584D01*
X208953965Y-168787260D02*
X208973379Y-168793524D01*
X208934436Y-168780958D02*
X208953965Y-168787260D01*
X208258388Y-168549405D02*
X208288529Y-168561380D01*
X208914790Y-168774617D02*
X208934436Y-168780958D01*
X208288529Y-168561380D02*
X208318749Y-168573161D01*
X208835051Y-168748856D02*
X208855159Y-168755357D01*
X208711990Y-168708964D02*
X208732786Y-168715721D01*
X208532413Y-168650174D02*
X208563228Y-168660391D01*
X208501668Y-168639759D02*
X208532413Y-168650174D01*
X207874116Y-168376297D02*
X207903152Y-168390752D01*
X207645198Y-168253931D02*
X207673476Y-168269877D01*
X208049674Y-168460193D02*
X208079239Y-168473512D01*
X208794489Y-168735730D02*
X208814827Y-168742314D01*
X208774036Y-168729103D02*
X208794489Y-168735730D01*
X208732786Y-168715721D02*
X208753468Y-168722434D01*
X207932279Y-168405018D02*
X207961496Y-168419096D01*
X207903152Y-168390752D02*
X207932279Y-168405018D01*
X208691079Y-168702163D02*
X208711990Y-168708964D01*
X208318749Y-168573161D02*
X208349047Y-168584748D01*
X208168443Y-168512322D02*
X208198344Y-168524876D01*
X207701853Y-168285638D02*
X207730326Y-168301214D01*
X208563228Y-168660391D02*
X208584820Y-168667470D01*
X207758895Y-168316604D02*
X207787560Y-168331807D01*
X207787560Y-168331807D02*
X207816319Y-168346824D01*
X209142842Y-168848263D02*
X209161084Y-168854173D01*
X208198344Y-168524876D02*
X208228325Y-168537237D01*
X209087409Y-168830332D02*
X209106004Y-168836343D01*
X208814827Y-168742314D02*
X208835051Y-168748856D01*
X208670055Y-168695316D02*
X208691079Y-168702163D01*
X209068697Y-168824287D02*
X209087409Y-168830332D01*
X208855159Y-168755357D02*
X208875151Y-168761817D01*
X208108890Y-168486640D02*
X208138625Y-168499577D01*
X208440397Y-168618342D02*
X208470996Y-168629149D01*
X209124482Y-168842320D02*
X209142842Y-168848263D01*
X209106004Y-168836343D02*
X209124482Y-168842320D01*
X209049867Y-168818207D02*
X209068697Y-168824287D01*
X209011856Y-168805938D02*
X209030920Y-168812091D01*
X208973379Y-168793524D02*
X208992676Y-168799750D01*
X208627664Y-168681486D02*
X208648916Y-168688424D01*
X208079239Y-168473512D02*
X208108890Y-168486640D01*
X207730326Y-168301214D02*
X207758895Y-168316604D01*
X208349047Y-168584748D02*
X208379422Y-168596141D01*
X208228325Y-168537237D02*
X208258388Y-168549405D01*
X208020194Y-168446684D02*
X208049674Y-168460193D01*
X207845171Y-168361654D02*
X207874116Y-168376297D01*
X207961496Y-168419096D02*
X207990801Y-168432985D01*
X207990801Y-168432985D02*
X208020194Y-168446684D01*
X208875151Y-168761817D02*
X208895028Y-168768237D01*
X208648916Y-168688424D02*
X208670055Y-168695316D01*
X207816319Y-168346824D02*
X207845171Y-168361654D01*
X208606299Y-168674502D02*
X208627664Y-168681486D01*
X207673476Y-168269877D02*
X207701853Y-168285638D01*
X208470996Y-168629149D02*
X208501668Y-168639759D01*
X208379422Y-168596141D02*
X208409872Y-168607339D01*
X209030920Y-168812091D02*
X209049867Y-168818207D01*
X208895028Y-168768237D02*
X208914790Y-168774617D01*
X208138625Y-168499577D02*
X208168443Y-168512322D01*
X209161084Y-168854173D02*
X209179208Y-168860051D01*
X208584820Y-168667470D02*
X208606299Y-168674502D01*
X208753468Y-168722434D02*
X208774036Y-168729103D01*
X208409872Y-168607339D02*
X208440397Y-168618342D01*
X209254436Y-168883807D02*
X209329958Y-168906362D01*
X209179208Y-168860051D02*
X209254436Y-168883807D01*
X208992676Y-168799750D02*
X209011856Y-168805938D01*
X185453758Y-155645345D02*
X186621728Y-156308955D01*
X145216385Y-147682218D02*
X148129911Y-147682193D01*
X181949847Y-153654515D02*
X183117818Y-154318125D01*
X173774057Y-149009242D02*
X174942027Y-149672853D01*
X81118824Y-147683021D02*
X84032350Y-147682971D01*
X177277967Y-151000073D02*
X178445937Y-151663684D01*
X116081130Y-147682511D02*
X118994655Y-147682477D01*
X113167604Y-147682547D02*
X116081130Y-147682511D01*
X92772926Y-147682828D02*
X95686452Y-147682784D01*
X86945875Y-147682922D02*
X89859401Y-147682874D01*
X162697540Y-147682081D02*
X165611066Y-147682061D01*
X156870488Y-147682124D02*
X159784014Y-147682102D01*
X148129911Y-147682193D02*
X151043436Y-147682169D01*
X136475808Y-147682296D02*
X139389334Y-147682269D01*
X127735231Y-147682382D02*
X130648757Y-147682352D01*
X124821706Y-147682413D02*
X127735231Y-147682382D01*
X110254079Y-147682583D02*
X113167604Y-147682547D01*
X81105091Y-147683008D02*
X81111958Y-147683018D01*
X171438118Y-147682021D02*
X172606088Y-148345632D01*
X139389334Y-147682269D02*
X142302859Y-147682243D01*
X89859401Y-147682874D02*
X92772926Y-147682828D01*
X159784014Y-147682102D02*
X162697540Y-147682081D01*
X174942027Y-149672853D02*
X176109997Y-150336463D01*
X172606088Y-148345632D02*
X173774057Y-149009242D01*
X107340553Y-147682620D02*
X110254079Y-147682583D01*
X206477227Y-167590321D02*
X207645198Y-168253931D01*
X205309257Y-166926712D02*
X206477227Y-167590321D01*
X198301433Y-162945053D02*
X199469404Y-163608663D01*
X194797521Y-160954224D02*
X195965492Y-161617834D01*
X186621728Y-156308955D02*
X187789699Y-156972565D01*
X191293610Y-158963395D02*
X192461580Y-159627004D01*
X183117818Y-154318125D02*
X184285788Y-154981735D01*
X179613907Y-152327294D02*
X180781877Y-152990904D01*
X151043436Y-147682169D02*
X153956962Y-147682146D01*
X118994655Y-147682477D02*
X121908181Y-147682445D01*
X130648757Y-147682352D02*
X133562283Y-147682324D01*
X180781877Y-152990904D02*
X181949847Y-153654515D01*
X133562283Y-147682324D02*
X136475808Y-147682296D01*
X204141286Y-166263102D02*
X205309257Y-166926712D01*
X202973315Y-165599492D02*
X204141286Y-166263102D01*
X201805345Y-164935883D02*
X202973315Y-165599492D01*
X200637374Y-164272273D02*
X201805345Y-164935883D01*
X199469404Y-163608663D02*
X200637374Y-164272273D01*
X188957669Y-157636175D02*
X190125639Y-158299785D01*
X178445937Y-151663684D02*
X179613907Y-152327294D01*
X104427028Y-147682659D02*
X107340553Y-147682620D01*
X121908181Y-147682445D02*
X124821706Y-147682413D01*
X184285788Y-154981735D02*
X185453758Y-155645345D01*
X165611066Y-147682061D02*
X168524592Y-147682041D01*
X101513502Y-147682700D02*
X104427028Y-147682659D01*
X153956962Y-147682146D02*
X156870488Y-147682124D01*
X142302859Y-147682243D02*
X145216385Y-147682218D01*
X81111958Y-147683018D02*
X81118824Y-147683021D01*
X84032350Y-147682971D02*
X86945875Y-147682922D01*
X197133462Y-162281444D02*
X198301433Y-162945053D01*
X195965492Y-161617834D02*
X197133462Y-162281444D01*
X95686452Y-147682784D02*
X98599977Y-147682741D01*
X98599977Y-147682741D02*
X101513502Y-147682700D01*
X168524592Y-147682041D02*
X171438118Y-147682021D01*
X193629551Y-160290614D02*
X194797521Y-160954224D01*
X192461580Y-159627004D02*
X193629551Y-160290614D01*
X190125639Y-158299785D02*
X191293610Y-158963395D01*
X187789699Y-156972565D02*
X188957669Y-157636175D01*
X176109997Y-150336463D02*
X177277967Y-151000073D01*
X80988384Y-147681664D02*
X80995248Y-147681814D01*
X80967794Y-147681153D02*
X80974657Y-147681333D01*
X80954069Y-147680759D02*
X80960931Y-147680961D01*
X80947207Y-147680545D02*
X80954069Y-147680759D01*
X80433306Y-147648993D02*
X80455687Y-147650957D01*
X80787976Y-147673466D02*
X80826022Y-147675379D01*
X80192091Y-147625044D02*
X80222088Y-147627622D01*
X80617353Y-147663319D02*
X80648864Y-147665398D01*
X80504359Y-147655000D02*
X80530650Y-147657063D01*
X80162113Y-147622288D02*
X80192091Y-147625044D01*
X80253691Y-147630188D02*
X80256574Y-147630529D01*
X80392453Y-147645224D02*
X80412228Y-147647080D01*
X80919760Y-147679577D02*
X80926621Y-147679837D01*
X80587147Y-147661231D02*
X80617353Y-147663319D01*
X80340935Y-147640091D02*
X80356807Y-147641721D01*
X80558246Y-147659143D02*
X80587147Y-147661231D01*
X80301124Y-147635780D02*
X80313094Y-147637112D01*
X80266232Y-147631702D02*
X80273007Y-147632518D01*
X80252104Y-147630021D02*
X80253691Y-147630188D01*
X80132156Y-147619352D02*
X80162113Y-147622288D01*
X80906039Y-147679021D02*
X80912899Y-147679305D01*
X80715806Y-147669499D02*
X80751237Y-147671503D01*
X80326365Y-147638551D02*
X80340935Y-147640091D01*
X80222088Y-147627622D02*
X80252104Y-147630021D01*
X80681682Y-147667461D02*
X80715806Y-147669499D01*
X80256574Y-147630529D02*
X80260754Y-147631037D01*
X80281081Y-147633475D02*
X80290453Y-147634565D01*
X80412228Y-147647080D02*
X80433306Y-147648993D01*
X81029570Y-147682420D02*
X81036435Y-147682513D01*
X80313094Y-147637112D02*
X80326365Y-147638551D01*
X80912899Y-147679305D02*
X80919760Y-147679577D01*
X81077627Y-147682901D02*
X81084493Y-147682939D01*
X81008976Y-147682084D02*
X81015840Y-147682205D01*
X80981521Y-147681504D02*
X80988384Y-147681664D01*
X80751237Y-147671503D02*
X80787976Y-147673466D01*
X81002112Y-147681954D02*
X81008976Y-147682084D01*
X80290453Y-147634565D02*
X80301124Y-147635780D01*
X80455687Y-147650957D02*
X80479371Y-147652962D01*
X80530650Y-147657063D02*
X80558246Y-147659143D01*
X80974657Y-147681333D02*
X80981521Y-147681504D01*
X81098225Y-147682992D02*
X81105091Y-147683008D01*
X81091359Y-147682969D02*
X81098225Y-147682992D01*
X81050165Y-147682675D02*
X81057030Y-147682744D01*
X81084493Y-147682939D02*
X81091359Y-147682969D01*
X80926621Y-147679837D02*
X80933483Y-147680085D01*
X80260754Y-147631037D02*
X80266232Y-147631702D01*
X80865376Y-147677233D02*
X80906039Y-147679021D01*
X81070762Y-147682857D02*
X81077627Y-147682901D01*
X80479371Y-147652962D02*
X80504359Y-147655000D01*
X81063896Y-147682804D02*
X81070762Y-147682857D01*
X81057030Y-147682744D02*
X81063896Y-147682804D01*
X81043300Y-147682599D02*
X81050165Y-147682675D01*
X81022705Y-147682317D02*
X81029570Y-147682420D01*
X80826022Y-147675379D02*
X80865376Y-147677233D01*
X80960931Y-147680961D02*
X80967794Y-147681153D01*
X80373979Y-147643435D02*
X80392453Y-147645224D01*
X80356807Y-147641721D02*
X80373979Y-147643435D01*
X80940345Y-147680321D02*
X80947207Y-147680545D01*
X80648864Y-147665398D02*
X80681682Y-147667461D01*
X80933483Y-147680085D02*
X80940345Y-147680321D01*
X80273007Y-147632518D02*
X80281081Y-147633475D01*
X81036435Y-147682513D02*
X81043300Y-147682599D01*
X81015840Y-147682205D02*
X81022705Y-147682317D01*
X80995248Y-147681814D02*
X81002112Y-147681954D01*
X78775788Y-147306404D02*
X78782738Y-147308785D01*
X79450582Y-147502780D02*
X79479852Y-147509791D01*
X79025601Y-147385850D02*
X79051116Y-147393438D01*
X78623710Y-147257919D02*
X78650501Y-147266709D01*
X78782738Y-147308785D02*
X78790835Y-147311543D01*
X79333906Y-147472981D02*
X79363013Y-147480694D01*
X78765321Y-147302795D02*
X78769983Y-147304405D01*
X79297738Y-147463224D02*
X79333906Y-147472981D01*
X79262762Y-147453680D02*
X79297738Y-147463224D01*
X79228974Y-147444358D02*
X79262762Y-147453680D01*
X78769983Y-147304405D02*
X78775788Y-147306404D01*
X78596970Y-147248981D02*
X78623710Y-147257919D01*
X79392162Y-147488231D02*
X79421352Y-147495593D01*
X78863593Y-147335607D02*
X78879766Y-147340807D01*
X78879766Y-147340807D02*
X78897101Y-147346330D01*
X79134728Y-147417783D02*
X79164959Y-147426402D01*
X78978090Y-147371505D02*
X79001259Y-147378537D01*
X79567890Y-147529771D02*
X79597310Y-147536079D01*
X79363013Y-147480694D02*
X79392162Y-147488231D01*
X79051116Y-147393438D02*
X79077808Y-147401294D01*
X78810474Y-147318159D02*
X78822021Y-147322004D01*
X79421352Y-147495593D02*
X79450582Y-147502780D01*
X78897101Y-147346330D02*
X78915599Y-147352168D01*
X80102219Y-147616237D02*
X80132156Y-147619352D01*
X79164959Y-147426402D02*
X79196374Y-147435263D01*
X78758171Y-147300371D02*
X78759416Y-147300772D01*
X80072305Y-147612944D02*
X80102219Y-147616237D01*
X79509161Y-147516627D02*
X79538507Y-147523287D01*
X78759416Y-147300772D02*
X78761799Y-147301582D01*
X78650501Y-147266709D02*
X78677343Y-147275349D01*
X78848578Y-147330735D02*
X78863593Y-147335607D01*
X80042413Y-147609473D02*
X80072305Y-147612944D01*
X80012545Y-147605823D02*
X80042413Y-147609473D01*
X79077808Y-147401294D02*
X79105678Y-147409411D01*
X78834722Y-147326198D02*
X78848578Y-147330735D01*
X78761799Y-147301582D02*
X78765321Y-147302795D01*
X78731179Y-147292180D02*
X78758171Y-147300371D01*
X79982702Y-147601995D02*
X80012545Y-147605823D01*
X79715334Y-147559547D02*
X79744923Y-147564972D01*
X79105678Y-147409411D02*
X79134728Y-147417783D01*
X78677343Y-147275349D02*
X78704236Y-147283840D01*
X79952883Y-147597989D02*
X79982702Y-147601995D01*
X79923090Y-147593804D02*
X79952883Y-147597989D01*
X79893325Y-147589443D02*
X79923090Y-147593804D01*
X79863586Y-147584903D02*
X79893325Y-147589443D01*
X78935262Y-147358314D02*
X78956092Y-147364762D01*
X79833876Y-147580186D02*
X79863586Y-147584903D01*
X78956092Y-147364762D02*
X78978090Y-147371505D01*
X79804195Y-147575292D02*
X79833876Y-147580186D01*
X79774544Y-147570221D02*
X79804195Y-147575292D01*
X79744923Y-147564972D02*
X79774544Y-147570221D01*
X79685778Y-147553945D02*
X79715334Y-147559547D01*
X79656254Y-147548166D02*
X79685778Y-147553945D01*
X79196374Y-147435263D02*
X79228974Y-147444358D01*
X79597310Y-147536079D02*
X79626765Y-147542210D01*
X78915599Y-147352168D02*
X78935262Y-147358314D01*
X78790835Y-147311543D02*
X78800079Y-147314670D01*
X78704236Y-147283840D02*
X78731179Y-147292180D01*
X78822021Y-147322004D02*
X78834722Y-147326198D01*
X79001259Y-147378537D02*
X79025601Y-147385850D01*
X78800079Y-147314670D02*
X78810474Y-147318159D01*
X79626765Y-147542210D02*
X79656254Y-147548166D01*
X79538507Y-147523287D02*
X79567890Y-147529771D01*
X79479852Y-147509791D02*
X79509161Y-147516627D01*
X77825809Y-146916032D02*
X77854591Y-146930829D01*
X78254358Y-147119321D02*
X78280367Y-147130175D01*
X77798058Y-146901669D02*
X77825809Y-146916032D01*
X77381522Y-146673790D02*
X77405030Y-146686658D01*
X77559922Y-146773985D02*
X77576536Y-146783192D01*
X78074021Y-147039272D02*
X78099594Y-147051141D01*
X77311428Y-146634447D02*
X77334721Y-146647685D01*
X77516042Y-146749403D02*
X77529678Y-146757084D01*
X77241987Y-146593999D02*
X77265061Y-146607604D01*
X78280367Y-147130175D02*
X78306437Y-147140884D01*
X78176696Y-147085883D02*
X78202522Y-147097174D01*
X77720950Y-146861245D02*
X77745631Y-146874270D01*
X77594149Y-146792897D02*
X77612763Y-146803093D01*
X77529678Y-146757084D02*
X77544303Y-146765280D01*
X77503393Y-146742241D02*
X77516042Y-146749403D01*
X77481046Y-146729499D02*
X77491729Y-146735604D01*
X77471342Y-146723931D02*
X77481046Y-146729499D01*
X77437405Y-146704345D02*
X77442258Y-146707143D01*
X77430583Y-146700468D02*
X77433515Y-146702118D01*
X77544303Y-146765280D02*
X77559922Y-146773985D01*
X77491729Y-146735604D02*
X77503393Y-146742241D01*
X78202522Y-147097174D02*
X78228409Y-147108320D01*
X77745631Y-146874270D02*
X77771332Y-146887746D01*
X77697288Y-146848677D02*
X77720950Y-146861245D01*
X77428608Y-146699401D02*
X77430583Y-146700468D01*
X77334721Y-146647685D02*
X77358086Y-146660799D01*
X78150932Y-147074447D02*
X78176696Y-147085883D01*
X78099594Y-147051141D02*
X78125231Y-147062867D01*
X77632381Y-146813774D02*
X77653006Y-146824936D01*
X77612763Y-146803093D02*
X77632381Y-146813774D01*
X77915253Y-146961704D02*
X77947139Y-146977771D01*
X78125231Y-147062867D02*
X78150932Y-147074447D01*
X77771332Y-146887746D02*
X77798058Y-146901669D01*
X77288208Y-146621087D02*
X77311428Y-146634447D01*
X77454859Y-146714429D02*
X77462614Y-146718906D01*
X77265061Y-146607604D02*
X77288208Y-146621087D01*
X77433515Y-146702118D02*
X77437405Y-146704345D01*
X77947139Y-146977771D02*
X77972382Y-146990358D01*
X77358086Y-146660799D02*
X77381522Y-146673790D01*
X77442258Y-146707143D02*
X77448075Y-146710506D01*
X78570284Y-147239893D02*
X78596970Y-147248981D01*
X77884404Y-146946055D02*
X77915253Y-146961704D01*
X78543650Y-147230657D02*
X78570284Y-147239893D01*
X77997692Y-147002801D02*
X78023069Y-147015102D01*
X77854591Y-146930829D02*
X77884404Y-146946055D01*
X78023069Y-147015102D02*
X78048512Y-147027259D01*
X77405030Y-146686658D02*
X77428608Y-146699401D01*
X78517070Y-147221273D02*
X78543650Y-147230657D01*
X77653006Y-146824936D02*
X77674640Y-146836572D01*
X77674640Y-146836572D02*
X77697288Y-146848677D01*
X78490544Y-147211740D02*
X78517070Y-147221273D01*
X78464074Y-147202059D02*
X78490544Y-147211740D01*
X78048512Y-147027259D02*
X78074021Y-147039272D01*
X78228409Y-147108320D02*
X78254358Y-147119321D01*
X77448075Y-146710506D02*
X77454859Y-146714429D01*
X78437658Y-147192231D02*
X78464074Y-147202059D01*
X77462614Y-146718906D02*
X77471342Y-146723931D01*
X77576536Y-146783192D02*
X77594149Y-146792897D01*
X78411299Y-147182256D02*
X78437658Y-147192231D01*
X78384997Y-147172133D02*
X78411299Y-147182256D01*
X78358752Y-147161863D02*
X78384997Y-147172133D01*
X78332565Y-147151447D02*
X78358752Y-147161863D01*
X78306437Y-147140884D02*
X78332565Y-147151447D01*
X77972382Y-146990358D02*
X77997692Y-147002801D01*
X76818171Y-146312713D02*
X76839759Y-146328580D01*
X76753907Y-146264419D02*
X76775245Y-146280633D01*
X76103634Y-145728684D02*
X76123196Y-145746110D01*
X76342136Y-145932571D02*
X76352425Y-145941335D01*
X76582965Y-146130688D02*
X76605749Y-146148799D01*
X76519742Y-146079927D02*
X76539965Y-146096247D01*
X76500366Y-146064212D02*
X76519742Y-146079927D01*
X76332652Y-145924466D02*
X76342136Y-145932571D01*
X76302699Y-145898711D02*
X76308997Y-145904141D01*
X76292463Y-145889896D02*
X76297188Y-145893961D01*
X76182431Y-145797782D02*
X76202357Y-145814802D01*
X76653904Y-146186782D02*
X76679282Y-146206645D01*
X76796666Y-146296731D02*
X76818171Y-146312713D01*
X76539965Y-146096247D02*
X76561038Y-146113169D01*
X76481834Y-146049107D02*
X76500366Y-146064212D01*
X76222373Y-145831719D02*
X76242478Y-145848533D01*
X76316086Y-145910246D02*
X76323970Y-145917022D01*
X76288518Y-145886520D02*
X76292463Y-145889896D01*
X76142850Y-145763436D02*
X76162595Y-145780660D01*
X76285350Y-145883837D02*
X76288518Y-145886520D01*
X76993157Y-146436373D02*
X77015392Y-146451301D01*
X76401703Y-145982886D02*
X76416070Y-145994875D01*
X76905015Y-146375481D02*
X76926930Y-146390881D01*
X76375433Y-145960821D02*
X76388158Y-145971533D01*
X76732654Y-146248091D02*
X76753907Y-146264419D01*
X76705530Y-146227083D02*
X76732654Y-146248091D01*
X76629395Y-146167499D02*
X76653904Y-146186782D01*
X76297188Y-145893961D02*
X76302699Y-145898711D01*
X76084163Y-145711157D02*
X76103634Y-145728684D01*
X76282956Y-145881851D02*
X76285350Y-145883837D01*
X76202357Y-145814802D02*
X76222373Y-145831719D01*
X76431263Y-146007496D02*
X76447286Y-146020745D01*
X76416070Y-145994875D02*
X76431263Y-146007496D01*
X76948926Y-146406163D02*
X76971002Y-146421327D01*
X76926930Y-146390881D02*
X76948926Y-146406163D01*
X76561038Y-146113169D02*
X76582965Y-146130688D01*
X76464142Y-146034616D02*
X76481834Y-146049107D01*
X76352425Y-145941335D02*
X76363523Y-145950753D01*
X76323970Y-145917022D02*
X76332652Y-145924466D01*
X77218987Y-146580273D02*
X77241987Y-146593999D01*
X76839759Y-146328580D02*
X76861429Y-146344330D01*
X76242478Y-145848533D02*
X76262673Y-145865244D01*
X76861429Y-146344330D02*
X76883181Y-146359964D01*
X77196061Y-146566424D02*
X77218987Y-146580273D01*
X77173210Y-146552455D02*
X77196061Y-146566424D01*
X76308997Y-145904141D02*
X76316086Y-145910246D01*
X76971002Y-146421327D02*
X76993157Y-146436373D01*
X76363523Y-145950753D02*
X76375433Y-145960821D01*
X77150435Y-146538365D02*
X77173210Y-146552455D01*
X77127735Y-146524154D02*
X77150435Y-146538365D01*
X77105112Y-146509823D02*
X77127735Y-146524154D01*
X77082566Y-146495371D02*
X77105112Y-146509823D01*
X76775245Y-146280633D02*
X76796666Y-146296731D01*
X76123196Y-145746110D02*
X76142850Y-145763436D01*
X76605749Y-146148799D02*
X76629395Y-146167499D01*
X76262673Y-145865244D02*
X76282956Y-145881851D01*
X76447286Y-146020745D02*
X76464142Y-146034616D01*
X77015392Y-146451301D02*
X77037705Y-146466111D01*
X76679282Y-146206645D02*
X76705530Y-146227083D01*
X77060096Y-146480801D02*
X77082566Y-146495371D01*
X76388158Y-145971533D02*
X76401703Y-145982886D01*
X76162595Y-145780660D02*
X76182431Y-145797782D01*
X77037705Y-146466111D02*
X77060096Y-146480801D01*
X76883181Y-146359964D02*
X76905015Y-146375481D01*
X75821425Y-145455397D02*
X75839570Y-145474297D01*
X75190840Y-144713285D02*
X75207176Y-144734288D01*
X75341752Y-144900093D02*
X75347055Y-144906729D01*
X75767575Y-145398127D02*
X75785427Y-145417312D01*
X75435770Y-145015998D02*
X75448301Y-145031138D01*
X75423917Y-145001613D02*
X75435770Y-145015998D01*
X75333040Y-144889205D02*
X75337082Y-144894250D01*
X75359574Y-144922371D02*
X75366799Y-144931369D01*
X75894588Y-145530421D02*
X75913119Y-145548936D01*
X75489998Y-145081055D02*
X75505280Y-145099181D01*
X75256856Y-144796782D02*
X75273637Y-144817440D01*
X75126617Y-144628431D02*
X75142503Y-144649770D01*
X75857812Y-145493101D02*
X75876152Y-145511809D01*
X75839570Y-145474297D02*
X75857812Y-145493101D01*
X75674714Y-145295104D02*
X75697160Y-145320451D01*
X75366799Y-144931369D02*
X75374673Y-144941146D01*
X75611770Y-145223313D02*
X75632023Y-145246531D01*
X75505280Y-145099181D02*
X75521259Y-145118046D01*
X75412738Y-144987988D02*
X75423917Y-145001613D01*
X75448301Y-145031138D02*
X75461513Y-145047029D01*
X75402228Y-144975125D02*
X75412738Y-144987988D01*
X75207176Y-144734288D02*
X75223625Y-144755205D01*
X75158503Y-144671026D02*
X75174615Y-144692198D01*
X75475411Y-145063670D02*
X75489998Y-145081055D01*
X75392383Y-144963028D02*
X75402228Y-144975125D01*
X75329623Y-144884961D02*
X75333040Y-144889205D01*
X75931747Y-145567354D02*
X75950469Y-145585674D01*
X75913119Y-145548936D02*
X75931747Y-145567354D01*
X75461513Y-145047029D02*
X75475411Y-145063670D01*
X75521259Y-145118046D02*
X75537941Y-145137644D01*
X75374673Y-144941146D02*
X75383199Y-144951701D01*
X75337082Y-144894250D02*
X75341752Y-144900093D01*
X75326825Y-144881522D02*
X75329623Y-144884961D01*
X75307532Y-144858495D02*
X75324644Y-144878891D01*
X75324644Y-144878891D02*
X75326825Y-144881522D01*
X75223625Y-144755205D02*
X75240185Y-144776036D01*
X76064784Y-145693529D02*
X76084163Y-145711157D01*
X76045498Y-145675801D02*
X76064784Y-145693529D01*
X75555328Y-145157974D02*
X75573426Y-145179031D01*
X76026305Y-145657973D02*
X76045498Y-145675801D01*
X76007205Y-145640047D02*
X76026305Y-145657973D01*
X75174615Y-144692198D02*
X75190840Y-144713285D01*
X75950469Y-145585674D02*
X75969287Y-145603897D01*
X75632023Y-145246531D02*
X75653003Y-145270463D01*
X75537941Y-145137644D02*
X75555328Y-145157974D01*
X75142503Y-144649770D02*
X75158503Y-144671026D01*
X75240185Y-144776036D02*
X75256856Y-144796782D01*
X75803377Y-145436402D02*
X75821425Y-145455397D01*
X75785427Y-145417312D02*
X75803377Y-145436402D01*
X75749822Y-145378849D02*
X75767575Y-145398127D01*
X75383199Y-144951701D02*
X75392383Y-144963028D01*
X75352994Y-144914156D02*
X75359574Y-144922371D01*
X75290530Y-144838011D02*
X75307532Y-144858495D01*
X75273637Y-144817440D02*
X75290530Y-144838011D01*
X75988199Y-145622021D02*
X76007205Y-145640047D01*
X75714614Y-145340010D02*
X75732169Y-145359476D01*
X75573426Y-145179031D02*
X75592239Y-145200812D01*
X75969287Y-145603897D02*
X75988199Y-145622021D01*
X75732169Y-145359476D02*
X75749822Y-145378849D01*
X75697160Y-145320451D02*
X75714614Y-145340010D01*
X75592239Y-145200812D02*
X75611770Y-145223313D01*
X75347055Y-144906729D02*
X75352994Y-144914156D01*
X75876152Y-145511809D02*
X75894588Y-145530421D01*
X75653003Y-145270463D02*
X75674714Y-145295104D01*
X215921199Y-58270782D02*
X215919318Y-58239262D01*
X215840337Y-57613060D02*
X215834328Y-57582031D01*
X215929202Y-60525964D02*
X215929228Y-58554941D01*
X215917238Y-58207756D02*
X215914962Y-58176266D01*
X215922883Y-58302315D02*
X215921199Y-58270782D01*
X215928335Y-58460145D02*
X215927641Y-58428560D01*
X215929129Y-58523336D02*
X215928831Y-58491737D01*
X215846150Y-57644121D02*
X215840337Y-57613060D01*
X215851768Y-57675215D02*
X215846150Y-57644121D01*
X215857189Y-57706339D02*
X215851768Y-57675215D01*
X215862415Y-57737493D02*
X215857189Y-57706339D01*
X215929071Y-70381080D02*
X215929097Y-68410057D01*
X215872280Y-57799887D02*
X215867445Y-57768676D01*
X215881359Y-57862389D02*
X215876918Y-57831125D01*
X215897162Y-57987689D02*
X215893506Y-57956329D01*
X215928837Y-88120289D02*
X215928863Y-86149266D01*
X215885605Y-57893678D02*
X215881359Y-57862389D01*
X215889654Y-57924992D02*
X215885605Y-57893678D01*
X215906949Y-58081893D02*
X215903883Y-58050471D01*
X215914962Y-58176266D02*
X215912488Y-58144791D01*
X215919318Y-58239262D02*
X215917238Y-58207756D01*
X215928941Y-80236196D02*
X215928967Y-78265173D01*
X215900621Y-58019070D02*
X215897162Y-57987689D01*
X215928863Y-86149266D02*
X215928889Y-84178243D01*
X215903883Y-58050471D02*
X215900621Y-58019070D01*
X215929045Y-72352104D02*
X215929071Y-70381080D01*
X215925658Y-58365416D02*
X215924369Y-58333860D01*
X215929228Y-58554941D02*
X215929129Y-58523336D01*
X215928915Y-82207220D02*
X215928941Y-80236196D01*
X215912488Y-58144791D02*
X215909817Y-58113333D01*
X215929150Y-64468011D02*
X215929176Y-62496987D01*
X215929097Y-68410057D02*
X215929124Y-66439034D01*
X215928889Y-84178243D02*
X215928915Y-82207220D01*
X215876918Y-57831125D02*
X215872280Y-57799887D01*
X215924369Y-58333860D02*
X215922883Y-58302315D01*
X215927641Y-58428560D02*
X215926748Y-58396983D01*
X215928967Y-78265173D02*
X215928993Y-76294150D01*
X215791976Y-57364825D02*
X215786459Y-57336372D01*
X215893506Y-57956329D02*
X215889654Y-57924992D01*
X215929176Y-62496987D02*
X215929202Y-60525964D01*
X215867445Y-57768676D02*
X215862415Y-57737493D01*
X215926748Y-58396983D02*
X215925658Y-58365416D01*
X215928831Y-58491737D02*
X215928335Y-58460145D01*
X215929019Y-74323127D02*
X215929045Y-72352104D01*
X215929124Y-66439034D02*
X215929150Y-64468011D01*
X215928993Y-76294150D02*
X215929019Y-74323127D01*
X215797439Y-57392990D02*
X215791976Y-57364825D01*
X215740136Y-57098419D02*
X215734043Y-57067391D01*
X215746157Y-57129163D02*
X215740136Y-57098419D01*
X215752109Y-57159622D02*
X215746157Y-57129163D01*
X215757992Y-57189796D02*
X215752109Y-57159622D01*
X215763810Y-57219685D02*
X215757992Y-57189796D01*
X215769563Y-57249287D02*
X215763810Y-57219685D01*
X215775255Y-57278602D02*
X215769563Y-57249287D01*
X215780886Y-57307631D02*
X215775255Y-57278602D01*
X215786459Y-57336372D02*
X215780886Y-57307631D01*
X215802850Y-57420866D02*
X215797439Y-57392990D01*
X215808210Y-57448452D02*
X215802850Y-57420866D01*
X215813522Y-57475749D02*
X215808210Y-57448452D01*
X215909817Y-58113333D02*
X215906949Y-58081893D01*
X215818788Y-57502756D02*
X215813522Y-57475749D01*
X215834328Y-57582031D02*
X215829189Y-57555897D01*
X215824010Y-57529472D02*
X215818788Y-57502756D01*
X215829189Y-57555897D02*
X215824010Y-57529472D01*
X231166959Y-128513722D02*
X231132232Y-128486298D01*
X231678126Y-128981456D02*
X231661235Y-128964131D01*
X231727621Y-129032376D02*
X231711319Y-129015579D01*
X215928478Y-115714615D02*
X215928504Y-113743591D01*
X230734892Y-128205210D02*
X230697427Y-128181569D01*
X230990954Y-128379683D02*
X230955051Y-128353807D01*
X231303430Y-128626452D02*
X231269681Y-128597818D01*
X215928453Y-117685638D02*
X215928478Y-115714615D01*
X231026625Y-128405871D02*
X230990954Y-128379683D01*
X231644146Y-128946633D02*
X231626858Y-128928961D01*
X230583751Y-128112602D02*
X230545438Y-128090271D01*
X230809168Y-128253464D02*
X230772139Y-128229176D01*
X231403170Y-128714141D02*
X231370176Y-128684615D01*
X231880096Y-129190450D02*
X231865699Y-129175465D01*
X231500610Y-128804474D02*
X231468389Y-128774072D01*
X231097267Y-128459181D02*
X231062064Y-128432371D01*
X230659747Y-128158252D02*
X230621854Y-128135263D01*
X231626858Y-128928961D02*
X231595696Y-128897411D01*
X230697427Y-128181569D02*
X230659747Y-128158252D01*
X230772139Y-128229176D02*
X230734892Y-128205210D01*
X230918919Y-128328246D02*
X230882560Y-128303001D01*
X231711319Y-129015579D02*
X231694820Y-128998605D01*
X230882560Y-128303001D02*
X230845975Y-128278073D01*
X231062064Y-128432371D02*
X231026625Y-128405871D01*
X231694820Y-128998605D02*
X231678126Y-128981456D01*
X231370176Y-128684615D02*
X231336929Y-128655385D01*
X231435908Y-128743960D02*
X231403170Y-128714141D01*
X231595696Y-128897411D02*
X231564266Y-128866146D01*
X231775367Y-129081700D02*
X231759645Y-129065437D01*
X231743730Y-129048996D02*
X231727621Y-129032376D01*
X231759645Y-129065437D02*
X231743730Y-129048996D01*
X231790897Y-129097782D02*
X231775367Y-129081700D01*
X231532570Y-128835166D02*
X231500610Y-128804474D01*
X231468389Y-128774072D02*
X231435908Y-128743960D01*
X231865699Y-129175465D02*
X231851115Y-129160295D01*
X231661235Y-128964131D02*
X231644146Y-128946633D01*
X215928529Y-111772568D02*
X215928555Y-109801545D01*
X231851115Y-129160295D02*
X231836344Y-129144941D01*
X215928811Y-90091313D02*
X215928837Y-88120289D01*
X215928785Y-92062336D02*
X215928811Y-90091313D01*
X215928760Y-94033359D02*
X215928785Y-92062336D01*
X215928734Y-96004382D02*
X215928760Y-94033359D01*
X215928708Y-97975406D02*
X215928734Y-96004382D01*
X231836344Y-129144941D02*
X231821385Y-129129404D01*
X215928682Y-99946429D02*
X215928708Y-97975406D01*
X215928580Y-107830522D02*
X215928606Y-105859498D01*
X230955051Y-128353807D02*
X230918919Y-128328246D01*
X231564266Y-128866146D02*
X231532570Y-128835166D01*
X231132232Y-128486298D02*
X231097267Y-128459181D01*
X231821385Y-129129404D02*
X231806236Y-129113684D01*
X215928657Y-101917452D02*
X215928682Y-99946429D01*
X215928631Y-103888475D02*
X215928657Y-101917452D01*
X215928606Y-105859498D02*
X215928631Y-103888475D01*
X215928504Y-113743591D02*
X215928529Y-111772568D01*
X217496658Y-163550031D02*
X217497658Y-163548031D01*
X231269681Y-128597818D02*
X231235685Y-128569484D01*
X230621854Y-128135263D02*
X230583751Y-128112602D01*
X230845975Y-128278073D02*
X230809168Y-128253464D01*
X231201443Y-128541451D02*
X231166959Y-128513722D01*
X231336929Y-128655385D02*
X231303430Y-128626452D01*
X231806236Y-129113684D02*
X231790897Y-129097782D01*
X231235685Y-128569484D02*
X231201443Y-128541451D01*
X215928555Y-109801545D02*
X215928580Y-107830522D01*
X215928428Y-119656661D02*
X215928453Y-117685638D01*
X233054647Y-130845742D02*
X233028674Y-130788319D01*
X232917776Y-130562240D02*
X232888321Y-130506655D01*
X233128298Y-131020081D02*
X233104463Y-130961629D01*
X233201615Y-131206062D02*
X233191870Y-131181005D01*
X233220402Y-131254654D02*
X233211125Y-131230612D01*
X232795862Y-130342241D02*
X232763692Y-130288238D01*
X233246861Y-131323721D02*
X233238267Y-131301210D01*
X233139514Y-131048156D02*
X233128298Y-131020081D01*
X233279044Y-131408635D02*
X233271322Y-131388178D01*
X233191870Y-131181005D02*
X233181886Y-131155442D01*
X233238267Y-131301210D02*
X233229448Y-131278187D01*
X232444563Y-129821444D02*
X232405888Y-129771829D01*
X233161193Y-131102804D02*
X233150478Y-131075731D01*
X233211125Y-131230612D02*
X233201615Y-131206062D01*
X233271322Y-131388178D02*
X233263386Y-131367207D01*
X233293856Y-131447996D02*
X233286554Y-131428574D01*
X233286554Y-131428574D02*
X233279044Y-131408635D01*
X233255233Y-131345721D02*
X233246861Y-131323721D01*
X232203171Y-129530970D02*
X232160786Y-129484285D01*
X232244947Y-129578159D02*
X232203171Y-129530970D01*
X232482605Y-129871526D02*
X232444563Y-129821444D01*
X232405888Y-129771829D02*
X232366585Y-129722687D01*
X232520010Y-129922068D02*
X232482605Y-129871526D01*
X232556775Y-129973065D02*
X232520010Y-129922068D01*
X232628368Y-130076396D02*
X232592896Y-130024509D01*
X232697351Y-130181470D02*
X232663188Y-130128718D01*
X232946544Y-130618205D02*
X232917776Y-130562240D01*
X233028674Y-130788319D02*
X233001996Y-130731251D01*
X233104463Y-130961629D02*
X233079911Y-130903514D01*
X233150478Y-131075731D02*
X233139514Y-131048156D01*
X233171662Y-131129375D02*
X233161193Y-131102804D01*
X233181886Y-131155442D02*
X233171662Y-131129375D01*
X233229448Y-131278187D02*
X233220402Y-131254654D01*
X232827359Y-130396649D02*
X232795862Y-130342241D01*
X232888321Y-130506655D02*
X232858180Y-130451456D01*
X233001996Y-130731251D02*
X232974618Y-130674544D01*
X233263386Y-131367207D02*
X233255233Y-131345721D01*
X233079911Y-130903514D02*
X233054647Y-130845742D01*
X232730854Y-130234645D02*
X232697351Y-130181470D01*
X231894306Y-129205249D02*
X231880096Y-129190450D01*
X231908332Y-129219862D02*
X231894306Y-129205249D01*
X232001400Y-129316851D02*
X231988646Y-129303569D01*
X231922173Y-129234287D02*
X231908332Y-129219862D01*
X231935831Y-129248523D02*
X231922173Y-129234287D01*
X231988646Y-129303569D02*
X231975713Y-129290094D01*
X231949307Y-129262570D02*
X231935831Y-129248523D01*
X231975713Y-129290094D02*
X231962600Y-129276428D01*
X231962600Y-129276428D02*
X231949307Y-129262570D01*
X232013975Y-129329939D02*
X232001400Y-129316851D01*
X232026373Y-129342833D02*
X232013975Y-129329939D01*
X232038595Y-129355533D02*
X232026373Y-129342833D01*
X232050640Y-129368036D02*
X232038595Y-129355533D01*
X232062511Y-129380342D02*
X232050640Y-129368036D01*
X232074208Y-129392451D02*
X232062511Y-129380342D01*
X232117797Y-129438110D02*
X232074208Y-129392451D01*
X232160786Y-129484285D02*
X232117797Y-129438110D01*
X232974618Y-130674544D02*
X232946544Y-130618205D01*
X232286111Y-129625845D02*
X232244947Y-129578159D01*
X232592896Y-130024509D02*
X232556775Y-129973065D01*
X232326658Y-129674023D02*
X232286111Y-129625845D01*
X232663188Y-130128718D02*
X232628368Y-130076396D01*
X232366585Y-129722687D02*
X232326658Y-129674023D01*
X232763692Y-130288238D02*
X232730854Y-130234645D01*
X232858180Y-130451456D02*
X232827359Y-130396649D01*
X233412451Y-131764311D02*
X233392080Y-131708483D01*
X233504212Y-132046482D02*
X233487209Y-131989664D01*
X233604256Y-132448901D02*
X233592003Y-132390952D01*
X233670878Y-132858048D02*
X233663418Y-132799265D01*
X233703889Y-133895391D02*
X233704234Y-133874790D01*
X233701161Y-133212524D02*
X233697841Y-133153263D01*
X233707570Y-133478967D02*
X233707498Y-133450091D01*
X233677650Y-132916925D02*
X233670878Y-132858048D01*
X233689127Y-133034941D02*
X233683733Y-132975892D01*
X233705719Y-133331215D02*
X233703787Y-133271843D01*
X233707576Y-133535259D02*
X233707595Y-133507356D01*
X233707113Y-133642002D02*
X233707281Y-133616047D01*
X233626714Y-132565204D02*
X233615826Y-132506987D01*
X233520539Y-132103480D02*
X233504212Y-132046482D01*
X233704917Y-133832126D02*
X233705247Y-133810065D01*
X233663418Y-132799265D02*
X233655270Y-132740584D01*
X233706914Y-133667472D02*
X233707113Y-133642002D01*
X233703203Y-133935134D02*
X233703544Y-133915506D01*
X233451177Y-131876592D02*
X233432151Y-131820349D01*
X233707281Y-133616047D02*
X233707416Y-133589604D01*
X233469530Y-131933032D02*
X233451177Y-131876592D01*
X233655270Y-132740584D02*
X233646437Y-132682009D01*
X233487209Y-131989664D02*
X233469530Y-131933032D01*
X233356003Y-131613499D02*
X233350638Y-131599315D01*
X233392080Y-131708483D02*
X233371038Y-131652871D01*
X233551162Y-132217990D02*
X233536189Y-132160651D01*
X233579070Y-132333147D02*
X233565455Y-132275491D01*
X233693830Y-133094066D02*
X233689127Y-133034941D01*
X233707516Y-133562675D02*
X233707576Y-133535259D01*
X233615826Y-132506987D02*
X233604256Y-132448901D01*
X233636918Y-132623547D02*
X233626714Y-132565204D01*
X233706438Y-133716950D02*
X233706689Y-133692454D01*
X233707498Y-133450091D02*
X233706956Y-133390633D01*
X233703787Y-133271843D02*
X233701161Y-133212524D01*
X233706166Y-133740958D02*
X233706438Y-133716950D01*
X233704578Y-133853701D02*
X233704917Y-133832126D01*
X233592003Y-132390952D02*
X233579070Y-132333147D01*
X233683733Y-132975892D02*
X233677650Y-132916925D01*
X233565455Y-132275491D02*
X233551162Y-132217990D01*
X233300953Y-131466899D02*
X233293856Y-131447996D01*
X233307846Y-131485282D02*
X233300953Y-131466899D01*
X233314539Y-131503144D02*
X233307846Y-131485282D01*
X233321034Y-131520484D02*
X233314539Y-131503144D01*
X233327334Y-131537301D02*
X233321034Y-131520484D01*
X233706689Y-133692454D02*
X233706914Y-133667472D01*
X233705875Y-133764481D02*
X233706166Y-133740958D01*
X233333441Y-131553593D02*
X233327334Y-131537301D01*
X233339359Y-131569360D02*
X233333441Y-131553593D01*
X233345091Y-131584601D02*
X233339359Y-131569360D01*
X233646437Y-132682009D02*
X233636918Y-132623547D01*
X233350638Y-131599315D02*
X233345091Y-131584601D01*
X233697841Y-133153263D02*
X233693830Y-133094066D01*
X233706956Y-133390633D02*
X233705719Y-133331215D01*
X233707595Y-133507356D02*
X233707570Y-133478967D01*
X233707416Y-133589604D02*
X233707516Y-133562675D01*
X233432151Y-131820349D02*
X233412451Y-131764311D01*
X233536189Y-132160651D02*
X233520539Y-132103480D01*
X233705247Y-133810065D02*
X233705568Y-133787516D01*
X233704234Y-133874790D02*
X233704578Y-133853701D01*
X233361190Y-131627154D02*
X233356003Y-131613499D01*
X233366201Y-131640279D02*
X233361190Y-131627154D01*
X233371038Y-131652871D02*
X233366201Y-131640279D01*
X233705568Y-133787516D02*
X233705875Y-133764481D01*
X233703544Y-133915506D02*
X233703889Y-133895391D01*
X233646093Y-134812596D02*
X233654984Y-134750024D01*
X233195933Y-136283227D02*
X233206085Y-136260030D01*
X233185977Y-136305901D02*
X233195933Y-136283227D01*
X233122033Y-136450047D02*
X233130533Y-136431007D01*
X233130533Y-136431007D02*
X233139250Y-136411452D01*
X233700498Y-134118911D02*
X233700613Y-134104638D01*
X233699520Y-134182354D02*
X233700498Y-134118911D01*
X233697743Y-134245743D02*
X233699520Y-134182354D01*
X233105690Y-136486583D02*
X233113751Y-136468571D01*
X233695170Y-134309070D02*
X233697743Y-134245743D01*
X233440108Y-135671876D02*
X233459822Y-135611756D01*
X233546910Y-135307964D02*
X233562021Y-135246617D01*
X233282449Y-136082890D02*
X233294082Y-136055463D01*
X233157320Y-136370790D02*
X233166668Y-136349681D01*
X233670411Y-134624528D02*
X233676944Y-134561618D01*
X233237700Y-136187285D02*
X233248614Y-136161981D01*
X233663090Y-134687332D02*
X233670411Y-134624528D01*
X233636419Y-134875040D02*
X233646093Y-134812596D01*
X233602716Y-135061534D02*
X233614729Y-134999517D01*
X233589926Y-135123395D02*
X233602716Y-135061534D01*
X233562021Y-135246617D02*
X233576361Y-135185092D01*
X233514376Y-135430091D02*
X233531028Y-135369124D01*
X233259712Y-136136149D02*
X233270991Y-136109785D01*
X233478772Y-135551414D02*
X233496957Y-135490856D01*
X233270991Y-136109785D02*
X233282449Y-136082890D01*
X233353654Y-135909978D02*
X233376405Y-135850823D01*
X233330148Y-135968873D02*
X233353654Y-135909978D01*
X233294082Y-136055463D02*
X233305888Y-136027501D01*
X233226972Y-136212060D02*
X233237700Y-136187285D01*
X233419634Y-135731765D02*
X233440108Y-135671876D01*
X233305888Y-136027501D02*
X233330148Y-135968873D01*
X233376405Y-135850823D02*
X233398399Y-135791417D01*
X233097853Y-136504082D02*
X233105690Y-136486583D01*
X233113751Y-136468571D02*
X233122033Y-136450047D01*
X233682688Y-134498610D02*
X233687641Y-134435511D01*
X233206085Y-136260030D02*
X233216433Y-136236308D01*
X233576361Y-135185092D02*
X233589926Y-135123395D01*
X233702869Y-133954275D02*
X233703203Y-133935134D01*
X233702230Y-133991097D02*
X233702544Y-133972929D01*
X233691803Y-134372328D02*
X233695170Y-134309070D01*
X233676944Y-134561618D02*
X233682688Y-134498610D01*
X233459822Y-135611756D02*
X233478772Y-135551414D01*
X233496957Y-135490856D02*
X233514376Y-135430091D01*
X233148179Y-136391380D02*
X233157320Y-136370790D01*
X233614729Y-134999517D02*
X233625964Y-134937349D01*
X233531028Y-135369124D02*
X233546910Y-135307964D01*
X233625964Y-134937349D02*
X233636419Y-134875040D01*
X233702544Y-133972929D02*
X233702869Y-133954275D01*
X233701932Y-134008778D02*
X233702230Y-133991097D01*
X233701651Y-134025971D02*
X233701932Y-134008778D01*
X233139250Y-136411452D02*
X233148179Y-136391380D01*
X233701391Y-134042679D02*
X233701651Y-134025971D01*
X233701155Y-134058899D02*
X233701391Y-134042679D01*
X233700944Y-134074632D02*
X233701155Y-134058899D01*
X233700763Y-134089879D02*
X233700944Y-134074632D01*
X233166668Y-136349681D02*
X233176221Y-136328052D01*
X233090243Y-136521069D02*
X233097853Y-136504082D01*
X233700613Y-134104638D02*
X233700763Y-134089879D01*
X233398399Y-135791417D02*
X233419634Y-135731765D01*
X233248614Y-136161981D02*
X233259712Y-136136149D01*
X233176221Y-136328052D02*
X233185977Y-136305901D01*
X233687641Y-134435511D02*
X233691803Y-134372328D01*
X233654984Y-134750024D02*
X233663090Y-134687332D01*
X233216433Y-136236308D02*
X233226972Y-136212060D01*
X232955925Y-136817869D02*
X232963844Y-136801325D01*
X232923650Y-136883751D02*
X232931808Y-136867325D01*
X232847540Y-137030219D02*
X232856234Y-137014068D01*
X232907153Y-136916513D02*
X232915431Y-136900147D01*
X232890417Y-136949154D02*
X232898815Y-136932848D01*
X232856234Y-137014068D02*
X232864868Y-136997886D01*
X232838787Y-137046338D02*
X232847540Y-137030219D01*
X229818843Y-142266025D02*
X230311683Y-141414737D01*
X232812174Y-137094506D02*
X232821104Y-137078482D01*
X231297360Y-139712157D02*
X231790197Y-138860866D01*
X223904703Y-152481428D02*
X224397552Y-151630148D01*
X221440458Y-156737821D02*
X221933307Y-155886544D01*
X222919006Y-154183987D02*
X223411855Y-153332708D01*
X222426157Y-155035266D02*
X222919006Y-154183987D01*
X232881960Y-136965429D02*
X232890417Y-136949154D01*
X224397552Y-151630148D02*
X224890399Y-150778868D01*
X232821104Y-137078482D02*
X232829975Y-137062426D01*
X232803185Y-137110498D02*
X232812174Y-137094506D01*
X231790197Y-138860866D02*
X232283033Y-138009574D01*
X230311683Y-141414737D02*
X230804522Y-140563447D01*
X228340318Y-144819886D02*
X228833160Y-143968600D01*
X221933307Y-155886544D02*
X222426157Y-155035266D01*
X224890399Y-150778868D02*
X225383247Y-149927587D01*
X233032398Y-136651141D02*
X233037847Y-136638703D01*
X232939907Y-136850869D02*
X232947946Y-136834384D01*
X232915431Y-136900147D02*
X232923650Y-136883751D01*
X232794138Y-137126458D02*
X232803185Y-137110498D01*
X227847474Y-145671171D02*
X228340318Y-144819886D01*
X220947608Y-157589099D02*
X221440458Y-156737821D01*
X232829975Y-137062426D02*
X232838787Y-137046338D01*
X232971703Y-136784752D02*
X232979502Y-136768150D01*
X232283033Y-138009574D02*
X232775868Y-137158281D01*
X228833160Y-143968600D02*
X229326002Y-143117313D01*
X232898815Y-136932848D02*
X232907153Y-136916513D01*
X226861785Y-147373739D02*
X227354630Y-146522455D01*
X232775868Y-137158281D02*
X232785032Y-137142386D01*
X233082863Y-136537547D02*
X233090243Y-136521069D01*
X232994918Y-136734860D02*
X233002535Y-136718173D01*
X229326002Y-143117313D02*
X229818843Y-142266025D01*
X232785032Y-137142386D02*
X232794138Y-137126458D01*
X230804522Y-140563447D02*
X231297360Y-139712157D01*
X233010092Y-136701457D02*
X233017588Y-136684713D01*
X233075714Y-136553515D02*
X233082863Y-136537547D01*
X232873444Y-136981673D02*
X232881960Y-136965429D01*
X225383247Y-149927587D02*
X225876093Y-149076305D01*
X225876093Y-149076305D02*
X226368939Y-148225022D01*
X233068801Y-136568976D02*
X233075714Y-136553515D01*
X233062124Y-136583930D02*
X233068801Y-136568976D01*
X233025023Y-136667941D02*
X233032398Y-136651141D01*
X233002535Y-136718173D02*
X233010092Y-136701457D01*
X233055688Y-136598379D02*
X233062124Y-136583930D01*
X233049495Y-136612323D02*
X233055688Y-136598379D01*
X226368939Y-148225022D02*
X226861785Y-147373739D01*
X233043547Y-136625764D02*
X233049495Y-136612323D01*
X232864868Y-136997886D02*
X232873444Y-136981673D01*
X233037847Y-136638703D02*
X233043547Y-136625764D01*
X233017588Y-136684713D02*
X233025023Y-136667941D01*
X232947946Y-136834384D02*
X232955925Y-136817869D01*
X223411855Y-153332708D02*
X223904703Y-152481428D01*
X232987240Y-136751520D02*
X232994918Y-136734860D01*
X232979502Y-136768150D02*
X232987240Y-136751520D01*
X232931808Y-136867325D02*
X232939907Y-136850869D01*
X227354630Y-146522455D02*
X227847474Y-145671171D01*
X232963844Y-136801325D02*
X232971703Y-136784752D01*
X216681202Y-164959005D02*
X216729460Y-164875623D01*
X215972523Y-166179565D02*
X216000498Y-166132121D01*
X217114105Y-164210756D02*
X217162026Y-164127931D01*
X215458413Y-166891310D02*
X215494086Y-166849588D01*
X216632900Y-165042444D02*
X216681202Y-164959005D01*
X217305605Y-163879852D02*
X217353408Y-163797294D01*
X216244786Y-165711967D02*
X216293477Y-165628088D01*
X215117288Y-167248827D02*
X215156936Y-167210746D01*
X217257775Y-163962478D02*
X217305605Y-163879852D01*
X217209916Y-164045172D02*
X217257775Y-163962478D01*
X215156936Y-167210746D02*
X215196156Y-167172246D01*
X215794181Y-166457178D02*
X215825138Y-166411767D01*
X217018164Y-164376599D02*
X217066152Y-164293645D01*
X216487724Y-165293104D02*
X216536163Y-165209494D01*
X216922082Y-164542695D02*
X216970141Y-164459615D01*
X216777676Y-164792301D02*
X216825851Y-164709038D01*
X215825138Y-166411767D02*
X215855605Y-166366008D01*
X215311209Y-167054266D02*
X215348680Y-167014124D01*
X216729460Y-164875623D02*
X216777676Y-164792301D01*
X215385707Y-166973582D02*
X215422286Y-166932643D01*
X216536163Y-165209494D02*
X216584555Y-165125941D01*
X215494086Y-166849588D02*
X215529302Y-166807480D01*
X215348680Y-167014124D02*
X215385707Y-166973582D01*
X215234943Y-167133330D02*
X215273295Y-167094002D01*
X215273295Y-167094002D02*
X215311209Y-167054266D01*
X215698409Y-166591285D02*
X215730813Y-166546941D01*
X216342115Y-165544262D02*
X216390702Y-165460488D01*
X216147241Y-165879879D02*
X216196041Y-165795897D01*
X215422286Y-166932643D02*
X215458413Y-166891310D01*
X215632173Y-166678879D02*
X215665527Y-166635265D01*
X215529302Y-166807480D02*
X215564057Y-166764990D01*
X215196156Y-167172246D02*
X215234943Y-167133330D01*
X216873986Y-164625836D02*
X216922082Y-164542695D01*
X216825851Y-164709038D02*
X216873986Y-164625836D01*
X215944043Y-166226679D02*
X215972523Y-166179565D01*
X215762738Y-166502237D02*
X215794181Y-166457178D01*
X215665527Y-166635265D02*
X215698409Y-166591285D01*
X215564057Y-166764990D02*
X215598349Y-166722122D01*
X216390702Y-165460488D02*
X216439238Y-165376769D01*
X217162026Y-164127931D02*
X217209916Y-164045172D01*
X217066152Y-164293645D02*
X217114105Y-164210756D01*
X215915061Y-166273460D02*
X215944043Y-166226679D01*
X216293477Y-165628088D02*
X216342115Y-165544262D01*
X215885581Y-166319904D02*
X215915061Y-166273460D01*
X220454758Y-158440376D02*
X220947608Y-157589099D01*
X219961908Y-159291652D02*
X220454758Y-158440376D01*
X219469058Y-160142929D02*
X219961908Y-159291652D01*
X218976208Y-160994205D02*
X219469058Y-160142929D01*
X218483358Y-161845480D02*
X218976208Y-160994205D01*
X216000498Y-166132121D02*
X216049471Y-166047991D01*
X215855605Y-166366008D02*
X215885581Y-166319904D01*
X216584555Y-165125941D02*
X216632900Y-165042444D01*
X215598349Y-166722122D02*
X215632173Y-166678879D01*
X216049471Y-166047991D02*
X216098385Y-165963910D01*
X217990508Y-162696756D02*
X218483358Y-161845480D01*
X217497658Y-163548031D02*
X217990508Y-162696756D01*
X215730813Y-166546941D02*
X215762738Y-166502237D01*
X216439238Y-165376769D02*
X216487724Y-165293104D01*
X216196041Y-165795897D02*
X216244786Y-165711967D01*
X216098385Y-165963910D02*
X216147241Y-165879879D01*
X217448933Y-163632382D02*
X217496658Y-163550031D01*
X217401183Y-163714803D02*
X217448933Y-163632382D01*
X216970141Y-164459615D02*
X217018164Y-164376599D01*
X217353408Y-163797294D02*
X217401183Y-163714803D01*
X213740947Y-168327103D02*
X213808768Y-168287022D01*
X213533960Y-168440848D02*
X213603530Y-168404022D01*
X212734844Y-168772155D02*
X212809815Y-168747739D01*
X213321964Y-168544719D02*
X213393164Y-168511203D01*
X212430973Y-168858104D02*
X212507513Y-168838386D01*
X214636499Y-167673759D02*
X214656930Y-167656306D01*
X214656930Y-167656306D02*
X214676610Y-167639424D01*
X214265723Y-167976770D02*
X214328303Y-167928282D01*
X214676610Y-167639424D02*
X214695544Y-167623117D01*
X212659462Y-168795406D02*
X212734844Y-168772155D01*
X214522973Y-167769443D02*
X214547207Y-167749198D01*
X215077213Y-167286483D02*
X215117288Y-167248827D01*
X213032121Y-168667561D02*
X213105312Y-168638546D01*
X213393164Y-168511203D02*
X213463834Y-168476577D01*
X215036716Y-167323713D02*
X215077213Y-167286483D01*
X214995799Y-167360512D02*
X215036716Y-167323713D01*
X214875355Y-167465412D02*
X214884208Y-167457604D01*
X214073829Y-168116034D02*
X214138473Y-168070653D01*
X213672530Y-168366105D02*
X213740947Y-168327103D01*
X212583680Y-168817485D02*
X212659462Y-168795406D01*
X213250246Y-168577119D02*
X213321964Y-168544719D01*
X212507513Y-168838386D02*
X212583680Y-168817485D01*
X214844600Y-167492626D02*
X214855555Y-167482927D01*
X214497969Y-167790234D02*
X214522973Y-167769443D01*
X214954465Y-167396876D02*
X214995799Y-167360512D01*
X214912718Y-167432801D02*
X214954465Y-167396876D01*
X214906619Y-167438029D02*
X214912718Y-167432801D01*
X214899836Y-167443908D02*
X214906619Y-167438029D01*
X214892367Y-167450434D02*
X214899836Y-167443908D01*
X214865805Y-167473854D02*
X214875355Y-167465412D01*
X214593374Y-167710361D02*
X214615315Y-167691779D01*
X214138473Y-168070653D02*
X214202442Y-168024229D01*
X213463834Y-168476577D02*
X213533960Y-168440848D01*
X213875980Y-168245868D02*
X213942570Y-168203648D01*
X212884360Y-168722164D02*
X212958466Y-168695436D01*
X214418293Y-167855839D02*
X214445632Y-167833436D01*
X214884208Y-167457604D02*
X214892367Y-167450434D01*
X214832937Y-167502946D02*
X214844600Y-167492626D01*
X214615315Y-167691779D02*
X214636499Y-167673759D01*
X214472189Y-167811566D02*
X214497969Y-167790234D01*
X214855555Y-167482927D02*
X214865805Y-167473854D01*
X214202442Y-168024229D02*
X214265723Y-167976770D01*
X214731186Y-167592247D02*
X214747901Y-167577692D01*
X214807474Y-167525436D02*
X214820563Y-167513885D01*
X214547207Y-167749198D02*
X214570673Y-167729502D01*
X214570673Y-167729502D02*
X214593374Y-167710361D01*
X214779139Y-167550363D02*
X214793668Y-167537597D01*
X214820563Y-167513885D02*
X214832937Y-167502946D01*
X214793668Y-167537597D02*
X214807474Y-167525436D01*
X214328303Y-167928282D02*
X214390168Y-167878771D01*
X212809815Y-168747739D02*
X212884360Y-168722164D01*
X214763885Y-167563729D02*
X214779139Y-167550363D01*
X214713735Y-167607391D02*
X214731186Y-167592247D01*
X214747901Y-167577692D02*
X214763885Y-167563729D01*
X214695544Y-167623117D02*
X214713735Y-167607391D01*
X213942570Y-168203648D02*
X214008524Y-168160368D01*
X213808768Y-168287022D02*
X213875980Y-168245868D01*
X214445632Y-167833436D02*
X214472189Y-167811566D01*
X213178024Y-168608396D02*
X213250246Y-168577119D01*
X213105312Y-168638546D02*
X213178024Y-168608396D01*
X214390168Y-167878771D02*
X214418293Y-167855839D01*
X214008524Y-168160368D02*
X214073829Y-168116034D01*
X213603530Y-168404022D02*
X213672530Y-168366105D01*
X212958466Y-168695436D02*
X213032121Y-168667561D01*
X77169992Y-43966379D02*
X77147290Y-43980302D01*
X77567972Y-43737179D02*
X77550645Y-43746673D01*
X77664021Y-43685525D02*
X77653024Y-43691351D01*
X77599935Y-43719800D02*
X77584403Y-43728222D01*
X77674103Y-43680203D02*
X77664021Y-43685525D01*
X77273900Y-43904402D02*
X77245189Y-43921343D01*
X77328743Y-43872321D02*
X77301752Y-43888063D01*
X77450676Y-43802399D02*
X77428035Y-43815228D01*
X77683266Y-43675381D02*
X77674103Y-43680203D01*
X77614567Y-43711907D02*
X77599935Y-43719800D01*
X77380129Y-43842610D02*
X77354870Y-43857172D01*
X77532425Y-43756712D02*
X77513316Y-43767299D01*
X76585017Y-44382986D02*
X76564525Y-44399998D01*
X77079641Y-44022781D02*
X77057245Y-44037176D01*
X76533934Y-44425418D02*
X76528925Y-44429431D01*
X76538138Y-44422032D02*
X76533934Y-44425418D01*
X76626265Y-44349292D02*
X76605597Y-44366084D01*
X77245189Y-43921343D02*
X77215622Y-43938891D01*
X77584403Y-43728222D02*
X77567972Y-43737179D01*
X77641114Y-43697687D02*
X77628294Y-43704537D01*
X76773343Y-44234873D02*
X76752077Y-44250882D01*
X77034928Y-44051688D02*
X77012688Y-44066318D01*
X76523117Y-44434074D02*
X76516511Y-44439352D01*
X76902678Y-44141209D02*
X76880917Y-44156534D01*
X77691508Y-43671054D02*
X77683266Y-43675381D01*
X77102114Y-44008503D02*
X77079641Y-44022781D01*
X77057245Y-44037176D02*
X77034928Y-44051688D01*
X76528925Y-44429431D02*
X76523117Y-44434074D01*
X77472438Y-43790137D02*
X77450676Y-43802399D01*
X76990527Y-44081064D02*
X76968445Y-44095927D01*
X76541535Y-44419267D02*
X76538138Y-44422032D01*
X76730895Y-44267003D02*
X76709798Y-44283237D01*
X77404519Y-43828630D02*
X77380129Y-43842610D01*
X76968445Y-44095927D02*
X76946443Y-44110905D01*
X77628294Y-43704537D02*
X77614567Y-43711907D01*
X76544121Y-44417121D02*
X76541535Y-44419267D01*
X77428035Y-43815228D02*
X77404519Y-43828630D01*
X77147290Y-43980302D02*
X77124664Y-43994343D01*
X76647019Y-44332611D02*
X76626265Y-44349292D01*
X77550645Y-43746673D02*
X77532425Y-43756712D01*
X76709798Y-44283237D02*
X76688786Y-44299583D01*
X76946443Y-44110905D02*
X76924520Y-44126000D01*
X77124664Y-43994343D02*
X77102114Y-44008503D01*
X77301752Y-43888063D02*
X77273900Y-43904402D01*
X77354870Y-43857172D02*
X77328743Y-43872321D01*
X77513316Y-43767299D02*
X77493319Y-43778439D01*
X77192769Y-43952576D02*
X77169992Y-43966379D01*
X76752077Y-44250882D02*
X76730895Y-44267003D01*
X76880917Y-44156534D02*
X76859238Y-44171974D01*
X76794692Y-44218978D02*
X76773343Y-44234873D01*
X77493319Y-43778439D02*
X77472438Y-43790137D01*
X76688786Y-44299583D02*
X76667860Y-44316041D01*
X76924520Y-44126000D02*
X76902678Y-44141209D01*
X77215622Y-43938891D02*
X77192769Y-43952576D01*
X76859238Y-44171974D02*
X76837640Y-44187528D01*
X76837640Y-44187528D02*
X76816125Y-44203196D01*
X76564525Y-44399998D02*
X76544121Y-44417121D01*
X76605597Y-44366084D02*
X76585017Y-44382986D01*
X77698826Y-43667217D02*
X77691508Y-43671054D01*
X76667860Y-44316041D02*
X76647019Y-44332611D01*
X76816125Y-44203196D02*
X76794692Y-44218978D01*
X77653024Y-43691351D02*
X77641114Y-43697687D01*
X77012688Y-44066318D02*
X76990527Y-44081064D01*
X78643375Y-43252191D02*
X78612709Y-43262643D01*
X78148764Y-43441570D02*
X78123090Y-43453003D01*
X78174503Y-43430279D02*
X78148764Y-43441570D01*
X78200304Y-43419133D02*
X78174503Y-43430279D01*
X79063852Y-43119697D02*
X79057085Y-43121664D01*
X77970415Y-43524599D02*
X77945203Y-43537028D01*
X78071934Y-43476299D02*
X78046455Y-43488161D01*
X78781395Y-43206334D02*
X78755838Y-43214671D01*
X78701650Y-43232585D02*
X78673022Y-43242173D01*
X78123090Y-43453003D02*
X78097480Y-43464580D01*
X78980135Y-43144245D02*
X78964939Y-43148802D01*
X77746026Y-43641521D02*
X77721453Y-43655211D01*
X77770673Y-43627970D02*
X77746026Y-43641521D01*
X77795393Y-43614558D02*
X77770673Y-43627970D01*
X78755838Y-43214671D02*
X78729256Y-43223419D01*
X78021041Y-43500165D02*
X77995694Y-43512311D01*
X78729256Y-43223419D02*
X78701650Y-43232585D01*
X78548333Y-43284877D02*
X78514626Y-43296671D01*
X78964939Y-43148802D02*
X78948699Y-43153711D01*
X78330237Y-43365563D02*
X78304129Y-43375987D01*
X78408915Y-43335161D02*
X78382631Y-43345149D01*
X78873328Y-43176974D02*
X78851893Y-43183728D01*
X78805924Y-43198401D02*
X78781395Y-43206334D01*
X78994283Y-43140032D02*
X78980135Y-43144245D01*
X79057085Y-43121664D02*
X79049257Y-43123933D01*
X78461658Y-43315623D02*
X78435258Y-43325319D01*
X78948699Y-43153711D02*
X78931416Y-43158976D01*
X79007383Y-43136159D02*
X78994283Y-43140032D01*
X79030429Y-43129404D02*
X79019433Y-43132618D01*
X78278081Y-43386557D02*
X78252094Y-43397271D01*
X77920060Y-43549599D02*
X77894986Y-43562310D01*
X77995694Y-43512311D02*
X77970415Y-43524599D01*
X78514626Y-43296671D02*
X78488114Y-43306074D01*
X78356404Y-43355283D02*
X78330237Y-43365563D01*
X78382631Y-43345149D02*
X78356404Y-43355283D01*
X78488114Y-43306074D02*
X78461658Y-43315623D01*
X78581028Y-43273537D02*
X78548333Y-43284877D01*
X79049257Y-43123933D02*
X79040372Y-43126511D01*
X78046455Y-43488161D02*
X78021041Y-43500165D01*
X78304129Y-43375987D02*
X78278081Y-43386557D01*
X77718799Y-43656671D02*
X77715206Y-43658597D01*
X77845047Y-43588154D02*
X77820184Y-43601286D01*
X77945203Y-43537028D02*
X77920060Y-43549599D01*
X77869981Y-43575162D02*
X77845047Y-43588154D01*
X78893729Y-43170602D02*
X78873328Y-43176974D01*
X78829424Y-43190868D02*
X78805924Y-43198401D01*
X77894986Y-43562310D02*
X77869981Y-43575162D01*
X78851893Y-43183728D02*
X78829424Y-43190868D01*
X78913092Y-43164605D02*
X78893729Y-43170602D01*
X78931416Y-43158976D02*
X78913092Y-43164605D01*
X79069557Y-43118028D02*
X79063852Y-43119697D01*
X78673022Y-43242173D02*
X78643375Y-43252191D01*
X79040372Y-43126511D02*
X79030429Y-43129404D01*
X79019433Y-43132618D02*
X79007383Y-43136159D01*
X77820184Y-43601286D02*
X77795393Y-43614558D01*
X77705217Y-43663865D02*
X77698826Y-43667217D01*
X77710678Y-43660993D02*
X77705217Y-43663865D01*
X78612709Y-43262643D02*
X78581028Y-43273537D01*
X77715206Y-43658597D02*
X77710678Y-43660993D01*
X78226168Y-43408130D02*
X78200304Y-43419133D01*
X77721453Y-43655211D02*
X77718799Y-43656671D01*
X78097480Y-43464580D02*
X78071934Y-43476299D01*
X78252094Y-43397271D02*
X78226168Y-43408130D01*
X78435258Y-43325319D02*
X78408915Y-43335161D01*
X79540497Y-42990246D02*
X79523252Y-42994077D01*
X98636249Y-39063183D02*
X96879508Y-39424404D01*
X132394994Y-32122216D02*
X130619601Y-32487214D01*
X79198447Y-43078263D02*
X79181513Y-43083294D01*
X79215397Y-43073292D02*
X79198447Y-43078263D01*
X79232365Y-43068381D02*
X79215397Y-43073292D01*
X79249349Y-43063531D02*
X79232365Y-43068381D01*
X88168428Y-41215603D02*
X86443122Y-41570369D01*
X79283367Y-43054009D02*
X79266350Y-43058740D01*
X79488804Y-43001919D02*
X79471601Y-43005930D01*
X79300401Y-43049338D02*
X79283367Y-43054009D01*
X114588168Y-35783248D02*
X112807264Y-36149416D01*
X79334517Y-43040176D02*
X79317451Y-43044727D01*
X79385809Y-43026884D02*
X79368696Y-43031255D01*
X79437239Y-43014131D02*
X79420081Y-43018322D01*
X107473850Y-37246025D02*
X105700279Y-37610696D01*
X111027683Y-36515315D02*
X109249765Y-36880874D01*
X79592317Y-42979112D02*
X79575030Y-42982763D01*
X93379529Y-40144076D02*
X91636972Y-40502386D01*
X109249765Y-36880874D02*
X107473850Y-37246025D01*
X95127154Y-39784725D02*
X93379529Y-40144076D01*
X121718192Y-34317291D02*
X119935405Y-34683833D01*
X79402937Y-43022573D02*
X79385809Y-43026884D01*
X83012145Y-42275869D02*
X81307154Y-42626461D01*
X79471601Y-43005930D02*
X79454413Y-43010001D01*
X91636972Y-40502386D02*
X89899825Y-40859585D01*
X96879508Y-39424404D02*
X95127154Y-39784725D01*
X79523252Y-42994077D02*
X79506021Y-42997968D01*
X125282282Y-33584524D02*
X123500598Y-33950832D01*
X84724247Y-41923815D02*
X83012145Y-42275869D01*
X79317451Y-43044727D02*
X79300401Y-43049338D01*
X79506021Y-42997968D02*
X79488804Y-43001919D01*
X79420081Y-43018322D02*
X79402937Y-43022573D01*
X102161532Y-38338319D02*
X100397037Y-38701131D01*
X119935405Y-34683833D02*
X118152579Y-35050387D01*
X79454413Y-43010001D02*
X79437239Y-43014131D01*
X79575030Y-42982763D02*
X79557757Y-42986475D01*
X123500598Y-33950832D02*
X121718192Y-34317291D01*
X79147698Y-43093536D02*
X79130817Y-43098747D01*
X79074198Y-43116650D02*
X79069557Y-43118028D01*
X79077773Y-43115556D02*
X79074198Y-43116650D01*
X130619601Y-32487214D02*
X128842124Y-32852645D01*
X79080280Y-43114741D02*
X79077773Y-43115556D01*
X79097108Y-43109350D02*
X79080280Y-43114741D01*
X100397037Y-38701131D02*
X98636249Y-39063183D01*
X79113953Y-43104019D02*
X79097108Y-43109350D01*
X79130817Y-43098747D02*
X79113953Y-43104019D01*
X79351599Y-43035686D02*
X79334517Y-43040176D01*
X79557757Y-42986475D02*
X79540497Y-42990246D01*
X81307154Y-42626461D02*
X79609617Y-42975521D01*
X79609617Y-42975521D02*
X79592317Y-42979112D01*
X105700279Y-37610696D02*
X103929393Y-37974817D01*
X127062904Y-33218438D02*
X125282282Y-33584524D01*
X112807264Y-36149416D02*
X111027683Y-36515315D01*
X79164597Y-43088385D02*
X79147698Y-43093536D01*
X86443122Y-41570369D02*
X84724247Y-41923815D01*
X103929393Y-37974817D02*
X102161532Y-38338319D01*
X79368696Y-43031255D02*
X79351599Y-43035686D01*
X89899825Y-40859585D02*
X88168428Y-41215603D01*
X116370053Y-35416882D02*
X114588168Y-35783248D01*
X118152579Y-35050387D02*
X116370053Y-35416882D01*
X79181513Y-43083294D02*
X79164597Y-43088385D01*
X79266350Y-43058740D02*
X79249349Y-43063531D01*
X128842124Y-32852645D02*
X127062904Y-33218438D01*
X134590300Y-31689478D02*
X134557637Y-31693447D01*
X134622987Y-31685722D02*
X134590300Y-31689478D01*
X134655698Y-31682180D02*
X134622987Y-31685722D01*
X150945956Y-31654655D02*
X149733297Y-31654656D01*
X138819368Y-31654666D02*
X137606709Y-31654667D01*
X134819567Y-31667683D02*
X134786755Y-31670154D01*
X135049668Y-31656393D02*
X135016759Y-31657362D01*
X170348497Y-31654651D02*
X169135838Y-31654651D01*
X134721186Y-31675739D02*
X134688432Y-31678853D01*
X134885241Y-31663384D02*
X134852396Y-31665426D01*
X135082587Y-31655640D02*
X135049668Y-31656393D01*
X137606709Y-31654667D02*
X136394050Y-31654669D01*
X141244685Y-31654663D02*
X140032027Y-31654664D01*
X159434567Y-31654652D02*
X158221908Y-31654652D01*
X166710520Y-31654651D02*
X165497861Y-31654651D01*
X134950974Y-31659943D02*
X134918100Y-31661556D01*
X161859885Y-31654651D02*
X160647226Y-31654652D01*
X134918100Y-31661556D02*
X134885241Y-31663384D01*
X134983861Y-31658545D02*
X134950974Y-31659943D01*
X143670003Y-31654660D02*
X142457344Y-31654661D01*
X135016759Y-31657362D02*
X134983861Y-31658545D01*
X169135838Y-31654651D02*
X167923179Y-31654651D01*
X135115514Y-31655102D02*
X135082587Y-31655640D01*
X160647226Y-31654652D02*
X159434567Y-31654652D01*
X165497861Y-31654651D02*
X164285202Y-31654651D01*
X135181391Y-31654671D02*
X135148449Y-31654779D01*
X153371273Y-31654654D02*
X152158614Y-31654654D01*
X155796591Y-31654653D02*
X154583932Y-31654653D01*
X158221908Y-31654652D02*
X157009250Y-31654652D01*
X167923179Y-31654651D02*
X166710520Y-31654651D01*
X149733297Y-31654656D02*
X148520638Y-31654656D01*
X163072544Y-31654651D02*
X161859885Y-31654651D01*
X134852396Y-31665426D02*
X134819567Y-31667683D01*
X136394050Y-31654669D02*
X135181391Y-31654671D01*
X152158614Y-31654654D02*
X150945956Y-31654655D01*
X134459804Y-31706637D02*
X134427248Y-31711461D01*
X140032027Y-31654664D02*
X138819368Y-31654666D01*
X134557637Y-31693447D02*
X134524999Y-31697630D01*
X146095321Y-31654658D02*
X144882662Y-31654659D01*
X134753961Y-31672839D02*
X134721186Y-31675739D01*
X134786755Y-31670154D02*
X134753961Y-31672839D01*
X142457344Y-31654661D02*
X141244685Y-31654663D01*
X147307979Y-31654657D02*
X146095321Y-31654658D01*
X135148449Y-31654779D02*
X135115514Y-31655102D01*
X148520638Y-31654656D02*
X147307979Y-31654657D01*
X171561156Y-31654651D02*
X170348497Y-31654651D01*
X134167962Y-31757721D02*
X132394994Y-32122216D01*
X154583932Y-31654653D02*
X153371273Y-31654654D01*
X157009250Y-31654652D02*
X155796591Y-31654653D01*
X134200251Y-31751193D02*
X134167962Y-31757721D01*
X164285202Y-31654651D02*
X163072544Y-31654651D01*
X134232576Y-31744879D02*
X134200251Y-31751193D01*
X134264938Y-31738776D02*
X134232576Y-31744879D01*
X172773815Y-31654651D02*
X171561156Y-31654651D01*
X134297334Y-31732887D02*
X134264938Y-31738776D01*
X134329765Y-31727211D02*
X134297334Y-31732887D01*
X134688432Y-31678853D02*
X134655698Y-31682180D01*
X134362228Y-31721748D02*
X134329765Y-31727211D01*
X134394723Y-31716498D02*
X134362228Y-31721748D01*
X134427248Y-31711461D02*
X134394723Y-31716498D01*
X134492387Y-31702027D02*
X134459804Y-31706637D01*
X144882662Y-31654659D02*
X143670003Y-31654660D01*
X134524999Y-31697630D02*
X134492387Y-31702027D01*
X76359740Y-44567560D02*
X76342351Y-44582150D01*
X76407410Y-44527923D02*
X76392273Y-44540450D01*
X76482192Y-44466888D02*
X76471655Y-44475399D01*
X76376382Y-44553661D02*
X76359740Y-44567560D01*
X76516511Y-44439352D02*
X76509112Y-44445268D01*
X76392273Y-44540450D02*
X76376382Y-44553661D01*
X76421789Y-44516076D02*
X76407410Y-44527923D01*
X76460343Y-44484570D02*
X76448259Y-44494403D01*
X76509112Y-44445268D02*
X76500924Y-44451826D01*
X76435406Y-44504904D02*
X76421789Y-44516076D01*
X76448259Y-44494403D02*
X76435406Y-44504904D01*
X76471655Y-44475399D02*
X76460343Y-44484570D01*
X76491949Y-44459032D02*
X76482192Y-44466888D01*
X76500924Y-44451826D02*
X76491949Y-44459032D01*
X74780081Y-144094545D02*
X74795829Y-144121545D01*
X74568808Y-143712710D02*
X74571668Y-143718156D01*
X74619644Y-143808712D02*
X74627534Y-143823338D01*
X74764926Y-144068410D02*
X74780081Y-144094545D01*
X74612278Y-143794993D02*
X74619644Y-143808712D01*
X74635954Y-143838865D02*
X74644909Y-143855292D01*
X74578836Y-143731839D02*
X74583154Y-143740069D01*
X74535910Y-143652921D02*
X74549419Y-143677488D01*
X74599102Y-143770279D02*
X74605433Y-143782181D01*
X74675029Y-143909941D02*
X74686171Y-143929937D01*
X74571668Y-143718156D02*
X74575009Y-143724534D01*
X74509307Y-143603572D02*
X74522539Y-143628283D01*
X74750358Y-144043144D02*
X74764926Y-144068410D01*
X74722968Y-143995228D02*
X74736374Y-144018749D01*
X74432839Y-143453838D02*
X74445234Y-143478966D01*
X74605433Y-143782181D02*
X74612278Y-143794993D01*
X74566424Y-143708196D02*
X74568808Y-143712710D01*
X74496213Y-143578791D02*
X74509307Y-143603572D01*
X74686171Y-143929937D02*
X74697871Y-143950819D01*
X74654403Y-143872615D02*
X74664442Y-143890832D01*
X74396499Y-143378051D02*
X74408471Y-143403380D01*
X74445234Y-143478966D02*
X74457769Y-143504026D01*
X75110844Y-144607009D02*
X75126617Y-144628431D01*
X74874152Y-144253318D02*
X74888068Y-144276009D01*
X75095184Y-144585504D02*
X75110844Y-144607009D01*
X75079639Y-144563917D02*
X75095184Y-144585504D01*
X75064207Y-144542248D02*
X75079639Y-144563917D01*
X75048891Y-144520497D02*
X75064207Y-144542248D01*
X75033689Y-144498666D02*
X75048891Y-144520497D01*
X74522539Y-143628283D02*
X74535910Y-143652921D01*
X74593282Y-143759292D02*
X74599102Y-143770279D01*
X74483259Y-143553939D02*
X74496213Y-143578791D01*
X75018603Y-144476755D02*
X75033689Y-144498666D01*
X74564512Y-143704619D02*
X74566424Y-143708196D01*
X75003632Y-144454764D02*
X75018603Y-144476755D01*
X74549419Y-143677488D02*
X74563067Y-143701981D01*
X74902102Y-144298623D02*
X74916254Y-144321162D01*
X74988778Y-144432693D02*
X75003632Y-144454764D01*
X74974039Y-144410543D02*
X74988778Y-144432693D01*
X74959417Y-144388314D02*
X74974039Y-144410543D01*
X74944912Y-144366008D02*
X74959417Y-144388314D01*
X74736374Y-144018749D02*
X74750358Y-144043144D01*
X74627534Y-143823338D02*
X74635954Y-143838865D01*
X74583154Y-143740069D02*
X74587968Y-143749221D01*
X74575009Y-143724534D02*
X74578836Y-143731839D01*
X74470444Y-143529017D02*
X74483259Y-143553939D01*
X74420585Y-143428642D02*
X74432839Y-143453838D01*
X74644909Y-143855292D02*
X74654403Y-143872615D01*
X74930524Y-144343623D02*
X74944912Y-144366008D01*
X74812174Y-144149408D02*
X74829123Y-144178131D01*
X74563067Y-143701981D02*
X74564512Y-143704619D01*
X74664442Y-143890832D02*
X74675029Y-143909941D01*
X74408471Y-143403380D02*
X74420585Y-143428642D01*
X74916254Y-144321162D02*
X74930524Y-144343623D01*
X74888068Y-144276009D02*
X74902102Y-144298623D01*
X74795829Y-144121545D02*
X74812174Y-144149408D01*
X74457769Y-143504026D02*
X74470444Y-143529017D01*
X74587968Y-143749221D02*
X74593282Y-143759292D01*
X74697871Y-143950819D02*
X74710135Y-143972583D01*
X74710135Y-143972583D02*
X74722968Y-143995228D01*
X74860356Y-144230552D02*
X74874152Y-144253318D01*
X74846678Y-144207711D02*
X74860356Y-144230552D01*
X74829123Y-144178131D02*
X74846678Y-144207711D01*
X74205429Y-142911461D02*
X74214816Y-142937883D01*
X74132339Y-142697848D02*
X74141479Y-142725301D01*
X74123617Y-142671423D02*
X74132339Y-142697848D01*
X74115308Y-142646025D02*
X74123617Y-142671423D01*
X74099903Y-142598323D02*
X74107405Y-142621658D01*
X74058126Y-142464040D02*
X74062984Y-142480096D01*
X74029659Y-142366907D02*
X74031536Y-142373466D01*
X74086078Y-142554757D02*
X74092796Y-142576022D01*
X74073787Y-142515343D02*
X74079744Y-142534530D01*
X73926876Y-142003656D02*
X73934104Y-142032878D01*
X74053622Y-142449031D02*
X74058126Y-142464040D01*
X73949085Y-142091195D02*
X73956838Y-142120288D01*
X73981140Y-142207292D02*
X73989589Y-142236200D01*
X74042180Y-142410311D02*
X74045655Y-142422165D01*
X73912945Y-141945086D02*
X73919823Y-141974391D01*
X73956838Y-142120288D02*
X73964764Y-142149335D01*
X74384668Y-143352656D02*
X74396499Y-143378051D01*
X74039037Y-142399512D02*
X74042180Y-142410311D01*
X74026808Y-142356987D02*
X74028085Y-142361414D01*
X74025119Y-142351341D02*
X74025821Y-142353629D01*
X73972865Y-142178337D02*
X73981140Y-142207292D01*
X73919823Y-141974391D02*
X73926876Y-142003656D01*
X73906242Y-141915740D02*
X73912945Y-141945086D01*
X74007007Y-142293870D02*
X74015977Y-142322631D01*
X74253819Y-143043007D02*
X74263933Y-143069145D01*
X74234026Y-142990559D02*
X74243850Y-143016812D01*
X73964764Y-142149335D02*
X73972865Y-142178337D01*
X74372978Y-143327196D02*
X74384668Y-143352656D01*
X74327642Y-143224717D02*
X74338762Y-143250432D01*
X74171468Y-142813797D02*
X74182339Y-142845335D01*
X73989589Y-142236200D02*
X73998211Y-142265059D01*
X74295140Y-143147203D02*
X74305831Y-143173102D01*
X74079744Y-142534530D02*
X74086078Y-142554757D01*
X74361431Y-143301672D02*
X74372978Y-143327196D01*
X74338762Y-143250432D02*
X74350025Y-143276084D01*
X74161038Y-142783277D02*
X74171468Y-142813797D01*
X74028085Y-142361414D02*
X74029659Y-142366907D01*
X74141479Y-142725301D02*
X74151044Y-142753777D01*
X74107405Y-142621658D02*
X74115308Y-142646025D01*
X74045655Y-142422165D02*
X74049467Y-142435073D01*
X74092796Y-142576022D02*
X74099903Y-142598323D01*
X74068203Y-142497197D02*
X74073787Y-142515343D01*
X73934104Y-142032878D02*
X73941507Y-142062058D01*
X73998211Y-142265059D02*
X74007007Y-142293870D01*
X74062984Y-142480096D02*
X74068203Y-142497197D01*
X74025821Y-142353629D02*
X74026808Y-142356987D01*
X74350025Y-143276084D02*
X74361431Y-143301672D01*
X74316665Y-143198941D02*
X74327642Y-143224717D01*
X74284594Y-143121243D02*
X74295140Y-143147203D01*
X74263933Y-143069145D02*
X74274191Y-143095223D01*
X74224348Y-142964249D02*
X74234026Y-142990559D01*
X74214816Y-142937883D02*
X74224348Y-142964249D01*
X74193657Y-142877891D02*
X74205429Y-142911461D01*
X74151044Y-142753777D02*
X74161038Y-142783277D01*
X74036218Y-142389770D02*
X74039037Y-142399512D01*
X74033720Y-142381088D02*
X74036218Y-142389770D01*
X74015977Y-142322631D02*
X74025119Y-142351341D01*
X74274191Y-143095223D02*
X74284594Y-143121243D01*
X74305831Y-143173102D02*
X74316665Y-143198941D01*
X73941507Y-142062058D02*
X73949085Y-142091195D01*
X74031536Y-142373466D02*
X74033720Y-142381088D01*
X74049467Y-142435073D02*
X74053622Y-142449031D01*
X74243850Y-143016812D02*
X74253819Y-143043007D01*
X74182339Y-142845335D02*
X74193657Y-142877891D01*
X73858958Y-141679620D02*
X73864251Y-141709259D01*
X73784431Y-141097252D02*
X73786903Y-141122693D01*
X73773142Y-140969233D02*
X73774635Y-140987634D01*
X73766222Y-140873394D02*
X73766879Y-140883548D01*
X73750855Y-140677322D02*
X73751929Y-140693149D01*
X73768498Y-140907396D02*
X73769473Y-140921089D01*
X73759421Y-140788038D02*
X73760844Y-140803839D01*
X73748857Y-140645660D02*
X73749831Y-140661492D01*
X73853842Y-141649948D02*
X73858958Y-141679620D01*
X73782139Y-141072982D02*
X73784431Y-141097252D01*
X73839558Y-141560740D02*
X73844142Y-141590507D01*
X73835152Y-141530943D02*
X73839558Y-141560740D01*
X73769473Y-140921089D02*
X73770567Y-140935959D01*
X73765658Y-140864422D02*
X73766222Y-140873394D01*
X73756723Y-140756422D02*
X73758047Y-140772232D01*
X73823001Y-141441381D02*
X73826873Y-141471263D01*
X73789562Y-141149306D02*
X73792414Y-141177088D01*
X73764193Y-140840357D02*
X73764454Y-140844598D01*
X73755450Y-140740609D02*
X73756723Y-140756422D01*
X73747933Y-140629824D02*
X73748857Y-140645660D01*
X73809812Y-141333525D02*
X73813966Y-141368312D01*
X73765180Y-140856631D02*
X73765658Y-140864422D01*
X73830923Y-141501117D02*
X73835152Y-141530943D01*
X73802199Y-141267448D02*
X73805892Y-141299903D01*
X73792414Y-141177088D02*
X73795467Y-141206039D01*
X73762318Y-140819637D02*
X73763841Y-140835431D01*
X73760844Y-140803839D02*
X73762318Y-140819637D01*
X73786903Y-141122693D02*
X73789562Y-141149306D01*
X73780020Y-141049885D02*
X73782139Y-141072982D01*
X73746235Y-140598145D02*
X73747059Y-140613986D01*
X73763991Y-140837301D02*
X73764193Y-140840357D01*
X73770567Y-140935959D02*
X73771788Y-140952008D01*
X73749831Y-140661492D02*
X73750855Y-140677322D01*
X73767635Y-140894882D02*
X73768498Y-140907396D01*
X73747059Y-140613986D02*
X73747933Y-140629824D01*
X73744736Y-140566456D02*
X73745461Y-140582302D01*
X73826873Y-141471263D02*
X73830923Y-141501117D01*
X73899715Y-141886355D02*
X73906242Y-141915740D01*
X73774635Y-140987634D02*
X73776275Y-141007210D01*
X73893364Y-141856931D02*
X73899715Y-141886355D01*
X73887189Y-141827469D02*
X73893364Y-141856931D01*
X73805892Y-141299903D02*
X73809812Y-141333525D01*
X73869721Y-141738865D02*
X73875367Y-141768435D01*
X73764781Y-140850023D02*
X73765180Y-140856631D01*
X73758047Y-140772232D02*
X73759421Y-140788038D01*
X73844142Y-141590507D02*
X73848903Y-141620243D01*
X73764454Y-140844598D02*
X73764781Y-140850023D01*
X73848903Y-141620243D02*
X73853842Y-141649948D01*
X73813966Y-141368312D02*
X73818360Y-141404264D01*
X73795467Y-141206039D02*
X73798726Y-141236160D01*
X73771788Y-140952008D02*
X73773142Y-140969233D01*
X73751929Y-140693149D02*
X73753052Y-140708972D01*
X73763841Y-140835431D02*
X73763991Y-140837301D01*
X73753052Y-140708972D02*
X73754226Y-140724792D01*
X73798726Y-141236160D02*
X73802199Y-141267448D01*
X73881190Y-141797970D02*
X73887189Y-141827469D01*
X73754226Y-140724792D02*
X73755450Y-140740609D01*
X73818360Y-141404264D02*
X73823001Y-141441381D01*
X73778067Y-141027960D02*
X73780020Y-141049885D01*
X73776275Y-141007210D02*
X73778067Y-141027960D01*
X73766879Y-140883548D02*
X73767635Y-140894882D01*
X73875367Y-141768435D02*
X73881190Y-141797970D01*
X73745461Y-140582302D02*
X73746235Y-140598145D01*
X73864251Y-141709259D02*
X73869721Y-141738865D01*
X73739835Y-131621835D02*
X73739837Y-134529367D01*
X73739834Y-128714302D02*
X73739835Y-131621835D01*
X73739830Y-114176643D02*
X73739830Y-117084175D01*
X73739838Y-70563675D02*
X73739837Y-73471206D01*
X73739846Y-50204097D02*
X73739841Y-50210961D01*
X73739883Y-50190370D02*
X73739860Y-50197233D01*
X73740895Y-50108025D02*
X73740759Y-50114886D01*
X73739839Y-67656144D02*
X73739838Y-70563675D01*
X73739839Y-64748613D02*
X73739839Y-67656144D01*
X73739833Y-88008860D02*
X73739833Y-90916392D01*
X73739831Y-119991707D02*
X73739832Y-122899239D01*
X73739830Y-117084175D02*
X73739831Y-119991707D01*
X73739830Y-102546517D02*
X73739830Y-105454048D01*
X73739860Y-50197233D02*
X73739846Y-50204097D01*
X73739830Y-108361580D02*
X73739830Y-111269112D01*
X73739830Y-105454048D02*
X73739830Y-108361580D01*
X73740759Y-50114886D02*
X73740632Y-50121748D01*
X73741194Y-50094303D02*
X73741040Y-50101164D01*
X73739831Y-96731454D02*
X73739831Y-99638986D01*
X73740309Y-50142332D02*
X73740220Y-50149194D01*
X73739840Y-61841083D02*
X73739839Y-64748613D01*
X73739832Y-93823923D02*
X73739831Y-96731454D01*
X73739834Y-85101329D02*
X73739833Y-88008860D01*
X73740515Y-50128609D02*
X73740408Y-50135471D01*
X73739836Y-79286267D02*
X73739835Y-82193798D01*
X73740141Y-50156056D02*
X73740070Y-50162918D01*
X73740220Y-50149194D02*
X73740141Y-50156056D01*
X73739841Y-53118491D02*
X73739841Y-56026022D01*
X73740070Y-50162918D02*
X73740010Y-50169781D01*
X73739835Y-82193798D02*
X73739834Y-85101329D01*
X73739916Y-50183507D02*
X73739883Y-50190370D01*
X73741358Y-50087442D02*
X73741194Y-50094303D01*
X73740010Y-50169781D02*
X73739958Y-50176644D01*
X73739837Y-76378736D02*
X73739836Y-79286267D01*
X73739841Y-50210961D02*
X73739841Y-53118491D01*
X73739837Y-73471206D02*
X73739837Y-76378736D01*
X73739841Y-56026022D02*
X73739840Y-58933552D01*
X73739958Y-50176644D02*
X73739916Y-50183507D01*
X73744062Y-140550608D02*
X73744736Y-140566456D01*
X73743438Y-140534758D02*
X73744062Y-140550608D01*
X73742863Y-140518905D02*
X73743438Y-140534758D01*
X73742339Y-140503051D02*
X73742863Y-140518905D01*
X73741531Y-50080582D02*
X73741358Y-50087442D01*
X73741864Y-140487195D02*
X73742339Y-140503051D01*
X73741440Y-140471338D02*
X73741864Y-140487195D01*
X73741065Y-140455479D02*
X73741440Y-140471338D01*
X73740740Y-140439618D02*
X73741065Y-140455479D01*
X73740466Y-140423756D02*
X73740740Y-140439618D01*
X73740241Y-140407893D02*
X73740466Y-140423756D01*
X73740066Y-140392029D02*
X73740241Y-140407893D01*
X73739841Y-140344431D02*
X73739866Y-140360298D01*
X73739831Y-99638986D02*
X73739830Y-102546517D01*
X73740408Y-50135471D02*
X73740309Y-50142332D01*
X73740632Y-50121748D02*
X73740515Y-50128609D01*
X73739941Y-140376164D02*
X73740066Y-140392029D01*
X73739866Y-140360298D02*
X73739941Y-140376164D01*
X73739839Y-137436899D02*
X73739841Y-140344431D01*
X73739832Y-122899239D02*
X73739832Y-125806770D01*
X73739840Y-58933552D02*
X73739840Y-61841083D01*
X73739830Y-111269112D02*
X73739830Y-114176643D01*
X73739833Y-90916392D02*
X73739832Y-93823923D01*
X73739837Y-134529367D02*
X73739839Y-137436899D01*
X73739832Y-125806770D02*
X73739834Y-128714302D01*
X73741040Y-50101164D02*
X73740895Y-50108025D01*
X73795739Y-49313999D02*
X73793341Y-49343991D01*
X73742538Y-50046278D02*
X73742318Y-50053139D01*
X73786252Y-49405189D02*
X73784811Y-49418476D01*
X73787585Y-49393201D02*
X73786252Y-49405189D01*
X73742768Y-50039417D02*
X73742538Y-50046278D01*
X73744055Y-50005112D02*
X73743779Y-50011973D01*
X73789892Y-49373118D02*
X73788801Y-49382510D01*
X73747975Y-49918243D02*
X73746124Y-49957593D01*
X73749885Y-49880200D02*
X73747975Y-49918243D01*
X73792837Y-49348516D02*
X73792330Y-49352722D01*
X73784811Y-49418476D02*
X73783270Y-49433062D01*
X73792330Y-49352722D02*
X73791665Y-49358224D01*
X73807120Y-49194228D02*
X73804007Y-49224140D01*
X73755884Y-49773910D02*
X73753848Y-49808034D01*
X73751845Y-49843464D02*
X73749885Y-49880200D01*
X73772393Y-49547883D02*
X73770387Y-49571575D01*
X73779922Y-49466134D02*
X73778131Y-49484619D01*
X73821354Y-49074809D02*
X73817529Y-49104628D01*
X73813881Y-49134471D02*
X73810412Y-49164338D01*
X73781638Y-49448948D02*
X73779922Y-49466134D01*
X73790849Y-49365023D02*
X73789892Y-49373118D01*
X73881082Y-48719165D02*
X73875133Y-48748630D01*
X73798317Y-49284026D02*
X73795739Y-49313999D01*
X73760025Y-49709579D02*
X73757946Y-49741092D01*
X73753848Y-49808034D02*
X73751845Y-49843464D01*
X73770387Y-49571575D02*
X73768347Y-49596569D01*
X73793177Y-49345606D02*
X73792837Y-49348516D01*
X73804007Y-49224140D02*
X73801073Y-49254073D01*
X73848034Y-48896449D02*
X73843144Y-48926106D01*
X73817529Y-49104628D02*
X73813881Y-49134471D01*
X73762114Y-49679371D02*
X73760025Y-49709579D01*
X73768347Y-49596569D02*
X73766283Y-49622866D01*
X73778131Y-49484619D02*
X73776274Y-49504406D01*
X73788801Y-49382510D02*
X73787585Y-49393201D01*
X73875133Y-48748630D02*
X73869360Y-48778130D01*
X73744341Y-49998251D02*
X73744055Y-50005112D01*
X73829538Y-49015247D02*
X73825357Y-49045015D01*
X73801073Y-49254073D02*
X73798317Y-49284026D01*
X73838431Y-48955791D02*
X73833896Y-48985505D01*
X73743006Y-50032556D02*
X73742768Y-50039417D01*
X73743255Y-50025695D02*
X73743006Y-50032556D01*
X73863764Y-48807662D02*
X73858344Y-48837227D01*
X73743512Y-50018834D02*
X73743255Y-50025695D01*
X73764202Y-49650466D02*
X73762114Y-49679371D01*
X73746124Y-49957593D02*
X73744341Y-49998251D01*
X73776274Y-49504406D02*
X73774358Y-49525494D01*
X73757946Y-49741092D02*
X73755884Y-49773910D01*
X73810412Y-49164338D02*
X73807120Y-49194228D01*
X73774358Y-49525494D02*
X73772393Y-49547883D01*
X73869360Y-48778130D02*
X73863764Y-48807662D01*
X73843144Y-48926106D02*
X73838431Y-48955791D01*
X73743779Y-50011973D02*
X73743512Y-50018834D01*
X73783270Y-49433062D02*
X73781638Y-49448948D01*
X73825357Y-49045015D02*
X73821354Y-49074809D01*
X73766283Y-49622866D02*
X73764202Y-49650466D01*
X73793341Y-49343991D02*
X73793177Y-49345606D01*
X73853100Y-48866823D02*
X73848034Y-48896449D01*
X73858344Y-48837227D02*
X73853100Y-48866823D01*
X73833896Y-48985505D02*
X73829538Y-49015247D01*
X73791665Y-49358224D02*
X73790849Y-49365023D01*
X73741714Y-50073721D02*
X73741531Y-50080582D01*
X73741906Y-50066860D02*
X73741714Y-50073721D01*
X73742107Y-50059999D02*
X73741906Y-50066860D01*
X73742318Y-50053139D02*
X73742107Y-50059999D01*
X74029889Y-48143190D02*
X74022026Y-48169920D01*
X74082527Y-47971753D02*
X74077008Y-47989078D01*
X74183327Y-47662817D02*
X74174231Y-47689536D01*
X74231038Y-47530033D02*
X74221199Y-47556480D01*
X74092589Y-47940605D02*
X74087723Y-47955596D01*
X74097119Y-47926776D02*
X74092589Y-47940605D01*
X74261440Y-47451032D02*
X74251158Y-47477308D01*
X74139341Y-47796931D02*
X74130994Y-47823906D01*
X74058578Y-48048074D02*
X74051834Y-48070086D01*
X74221199Y-47556480D02*
X74211508Y-47582982D01*
X73950236Y-48426541D02*
X73942532Y-48455625D01*
X73996890Y-48257221D02*
X73988017Y-48288698D01*
X74071172Y-48007572D02*
X74065027Y-48027236D01*
X74165284Y-47716307D02*
X74156487Y-47743131D01*
X73927649Y-48513918D02*
X73920470Y-48543125D01*
X74326207Y-47294618D02*
X74315047Y-47320536D01*
X73988017Y-48288698D02*
X73978908Y-48321367D01*
X74051834Y-48070086D02*
X74044799Y-48093275D01*
X74044799Y-48093275D02*
X74037482Y-48117642D01*
X74077008Y-47989078D02*
X74071172Y-48007572D01*
X74087723Y-47955596D02*
X74082527Y-47971753D01*
X74116848Y-47868139D02*
X74114480Y-47875024D01*
X74130994Y-47823906D02*
X74122797Y-47850931D01*
X74122797Y-47850931D02*
X74122415Y-47852083D01*
X74174231Y-47689536D02*
X74165284Y-47716307D01*
X74192572Y-47636151D02*
X74183327Y-47662817D01*
X73887207Y-48689734D02*
X73881082Y-48719165D01*
X73920470Y-48543125D02*
X73913466Y-48572371D01*
X74315047Y-47320536D02*
X74304033Y-47346515D01*
X73960011Y-48390287D02*
X73950236Y-48426541D01*
X74101305Y-47914110D02*
X74097119Y-47926776D01*
X74108620Y-47892255D02*
X74105141Y-47902603D01*
X74114480Y-47875024D02*
X74111735Y-47883062D01*
X74065027Y-48027236D02*
X74058578Y-48048074D01*
X74013901Y-48197834D02*
X74005520Y-48226934D01*
X74121623Y-47854377D02*
X74120426Y-47857817D01*
X74337513Y-47268761D02*
X74326207Y-47294618D01*
X74304033Y-47346515D02*
X74293165Y-47372555D01*
X74348964Y-47242968D02*
X74337513Y-47268761D01*
X73906638Y-48601656D02*
X73899986Y-48630979D01*
X73913466Y-48572371D02*
X73906638Y-48601656D01*
X73978908Y-48321367D02*
X73969571Y-48355229D01*
X74037482Y-48117642D02*
X74029889Y-48143190D01*
X74118832Y-47862403D02*
X74116848Y-47868139D01*
X74201966Y-47609540D02*
X74192572Y-47636151D01*
X74120426Y-47857817D02*
X74118832Y-47862403D01*
X74111735Y-47883062D02*
X74108620Y-47892255D01*
X74282443Y-47398655D02*
X74271868Y-47424814D01*
X73935003Y-48484751D02*
X73927649Y-48513918D01*
X73942532Y-48455625D02*
X73935003Y-48484751D01*
X74005520Y-48226934D02*
X73996890Y-48257221D01*
X74122415Y-47852083D02*
X74121623Y-47854377D01*
X74156487Y-47743131D02*
X74147839Y-47770005D01*
X74211508Y-47582982D02*
X74201966Y-47609540D01*
X74105141Y-47902603D02*
X74101305Y-47914110D01*
X74147839Y-47770005D02*
X74139341Y-47796931D01*
X74293165Y-47372555D02*
X74282443Y-47398655D01*
X74251158Y-47477308D02*
X74241024Y-47503642D01*
X74271868Y-47424814D02*
X74261440Y-47451032D01*
X74241024Y-47503642D02*
X74231038Y-47530033D01*
X73899986Y-48630979D02*
X73893509Y-48660338D01*
X73893509Y-48660338D02*
X73887207Y-48689734D01*
X73969571Y-48355229D02*
X73960011Y-48390287D01*
X74022026Y-48169920D02*
X74013901Y-48197834D01*
X74640000Y-46668841D02*
X74630314Y-46686436D01*
X74396216Y-47140430D02*
X74384186Y-47165967D01*
X74408389Y-47114958D02*
X74396216Y-47140430D01*
X74433168Y-47064213D02*
X74420707Y-47089552D01*
X74461817Y-47007103D02*
X74445773Y-47038941D01*
X74507417Y-46917793D02*
X74492645Y-46946532D01*
X74521755Y-46890082D02*
X74507417Y-46917793D01*
X74649191Y-46652242D02*
X74640000Y-46668841D01*
X74718854Y-46529731D02*
X74716035Y-46534596D01*
X74829276Y-46334283D02*
X74815673Y-46357355D01*
X75063270Y-45975516D02*
X75047756Y-45997348D01*
X75078901Y-45953765D02*
X75063270Y-45975516D01*
X74549103Y-46837729D02*
X74535652Y-46863394D01*
X74574646Y-46789451D02*
X74562103Y-46813082D01*
X74657882Y-46636637D02*
X74649191Y-46652242D01*
X74913438Y-46197424D02*
X74899109Y-46220045D01*
X74699199Y-46563707D02*
X74693629Y-46573412D01*
X74788835Y-46403717D02*
X74775600Y-46427007D01*
X74722788Y-46522876D02*
X74721107Y-46525825D01*
X75017080Y-46041254D02*
X75001918Y-46063328D01*
X74736633Y-46497306D02*
X74723892Y-46520881D01*
X74899109Y-46220045D02*
X74884901Y-46242742D01*
X75032359Y-46019261D02*
X75017080Y-46041254D01*
X74477443Y-46976301D02*
X74461817Y-47007103D01*
X74620138Y-46705029D02*
X74609478Y-46724625D01*
X74666066Y-46622022D02*
X74657882Y-46636637D01*
X74708717Y-46547216D02*
X74704231Y-46554976D01*
X74721107Y-46525825D02*
X74718854Y-46529731D01*
X74775600Y-46427007D02*
X74762487Y-46450368D01*
X74802193Y-46380499D02*
X74788835Y-46403717D01*
X74815673Y-46357355D02*
X74802193Y-46380499D01*
X74870813Y-46265515D02*
X74856846Y-46288363D01*
X74986874Y-46085481D02*
X74971949Y-46107713D01*
X74843000Y-46311286D02*
X74829276Y-46334283D01*
X74942455Y-46152414D02*
X74927886Y-46174880D01*
X74957142Y-46130024D02*
X74942455Y-46152414D01*
X74420707Y-47089552D02*
X74408389Y-47114958D01*
X74598338Y-46745225D02*
X74586726Y-46766833D01*
X74687525Y-46584093D02*
X74680893Y-46595753D01*
X74360560Y-47217237D02*
X74348964Y-47242968D01*
X74445773Y-47038941D02*
X74433168Y-47064213D01*
X74693629Y-46573412D02*
X74687525Y-46584093D01*
X74372300Y-47191570D02*
X74360560Y-47217237D01*
X74384186Y-47165967D02*
X74372300Y-47191570D01*
X74492645Y-46946532D02*
X74477443Y-46976301D01*
X74609478Y-46724625D02*
X74598338Y-46745225D01*
X74535652Y-46863394D02*
X74521755Y-46890082D01*
X74562103Y-46813082D02*
X74549103Y-46837729D01*
X74673738Y-46608395D02*
X74666066Y-46622022D01*
X74749498Y-46473802D02*
X74736633Y-46497306D01*
X74723892Y-46520881D02*
X74722788Y-46522876D01*
X74856846Y-46288363D02*
X74843000Y-46311286D01*
X74927886Y-46174880D02*
X74913438Y-46197424D01*
X75001918Y-46063328D02*
X74986874Y-46085481D01*
X74630314Y-46686436D02*
X74620138Y-46705029D01*
X74712654Y-46540423D02*
X74708717Y-46547216D01*
X74762487Y-46450368D02*
X74749498Y-46473802D01*
X74680893Y-46595753D02*
X74673738Y-46608395D01*
X74716035Y-46534596D02*
X74712654Y-46540423D01*
X75047756Y-45997348D02*
X75032359Y-46019261D01*
X74884901Y-46242742D02*
X74870813Y-46265515D01*
X74971949Y-46107713D02*
X74957142Y-46130024D01*
X74586726Y-46766833D02*
X74574646Y-46789451D01*
X74704231Y-46554976D02*
X74699199Y-46563707D01*
X75158798Y-45846252D02*
X75142588Y-45867588D01*
X75402722Y-45539307D02*
X75388843Y-45556172D01*
X75574700Y-45334813D02*
X75557990Y-45355008D01*
X75712072Y-45176495D02*
X75694545Y-45195967D01*
X75462652Y-45467449D02*
X75451943Y-45480170D01*
X75765253Y-45118636D02*
X75747426Y-45137830D01*
X75874287Y-45005447D02*
X75855870Y-45024075D01*
X75892801Y-44986915D02*
X75874287Y-45005447D01*
X76005906Y-44877751D02*
X75986816Y-44895701D01*
X76025089Y-44859898D02*
X76005906Y-44877751D01*
X75216630Y-45771550D02*
X75196163Y-45797837D01*
X75506403Y-45416051D02*
X75498974Y-45424715D01*
X75783179Y-45099536D02*
X75765253Y-45118636D01*
X75374343Y-45573877D02*
X75359227Y-45592423D01*
X75539430Y-45377643D02*
X75536776Y-45380771D01*
X75388843Y-45556172D02*
X75374343Y-45573877D01*
X75541384Y-45375291D02*
X75539430Y-45377643D01*
X75536776Y-45380771D02*
X75533427Y-45384680D01*
X75591514Y-45314708D02*
X75574700Y-45334813D01*
X75837550Y-45042798D02*
X75819328Y-45061617D01*
X75428601Y-45508081D02*
X75415976Y-45523278D01*
X75677119Y-45215530D02*
X75659794Y-45235184D01*
X75747426Y-45137830D02*
X75729699Y-45157116D01*
X75255829Y-45721595D02*
X75236520Y-45746137D01*
X75310223Y-45653155D02*
X75292684Y-45675107D01*
X75327162Y-45632059D02*
X75310223Y-45653155D01*
X75343498Y-45611816D02*
X75327162Y-45632059D01*
X75359227Y-45592423D02*
X75343498Y-45611816D01*
X75819328Y-45061617D02*
X75801204Y-45080529D01*
X75948923Y-44931895D02*
X75930120Y-44950139D01*
X75415976Y-45523278D02*
X75402722Y-45539307D01*
X75482125Y-45444459D02*
X75472714Y-45455546D01*
X75533427Y-45384680D02*
X75529387Y-45389373D01*
X75659794Y-45235184D02*
X75642571Y-45254929D01*
X75930120Y-44950139D02*
X75911412Y-44968478D01*
X75967822Y-44913749D02*
X75948923Y-44931895D01*
X75801204Y-45080529D02*
X75783179Y-45099536D01*
X75855870Y-45024075D02*
X75837550Y-45042798D01*
X75175124Y-45825001D02*
X75158798Y-45846252D01*
X75236520Y-45746137D02*
X75216630Y-45771550D01*
X75625450Y-45274765D02*
X75608430Y-45294692D01*
X75274552Y-45697919D02*
X75255829Y-45721595D01*
X75292684Y-45675107D02*
X75274552Y-45697919D01*
X75440591Y-45493713D02*
X75428601Y-45508081D01*
X75608430Y-45294692D02*
X75591514Y-45314708D01*
X75986816Y-44895701D02*
X75967822Y-44913749D01*
X75451943Y-45480170D02*
X75440591Y-45493713D01*
X75498974Y-45424715D02*
X75490879Y-45434183D01*
X75557990Y-45355008D02*
X75541384Y-45375291D01*
X75490879Y-45434183D02*
X75482125Y-45444459D01*
X75519251Y-45401124D02*
X75513164Y-45408189D01*
X75472714Y-45455546D02*
X75462652Y-45467449D01*
X75729699Y-45157116D02*
X75712072Y-45176495D01*
X75513164Y-45408189D02*
X75506403Y-45416051D01*
X75911412Y-44968478D02*
X75892801Y-44986915D01*
X75094649Y-45932097D02*
X75078901Y-45953765D01*
X75110513Y-45910511D02*
X75094649Y-45932097D01*
X75524660Y-45394853D02*
X75519251Y-45401124D01*
X75196163Y-45797837D02*
X75175124Y-45825001D01*
X75694545Y-45195967D02*
X75677119Y-45215530D01*
X75529387Y-45389373D02*
X75524660Y-45394853D01*
X75642571Y-45254929D02*
X75625450Y-45274765D01*
X75126492Y-45889008D02*
X75110513Y-45910511D01*
X75142588Y-45867588D02*
X75126492Y-45889008D01*
X173036342Y-31661364D02*
X173017607Y-31660420D01*
X202744138Y-50765351D02*
X202254848Y-50026331D01*
X177056038Y-32695511D02*
X175511748Y-32018071D01*
X173092523Y-31664615D02*
X173073800Y-31663462D01*
X175511748Y-32018071D02*
X173354098Y-31688111D01*
X201999398Y-46613891D02*
X201581488Y-45665041D01*
X172773808Y-31654511D02*
X172773815Y-31654651D01*
X173204762Y-31673007D02*
X173186068Y-31671433D01*
X173335454Y-31685978D02*
X173316803Y-31683915D01*
X172923885Y-31656749D02*
X172905132Y-31656224D01*
X173223451Y-31674650D02*
X173204762Y-31673007D01*
X172848860Y-31655070D02*
X172830099Y-31654826D01*
X199698348Y-44315601D02*
X190175018Y-44315601D01*
X172811337Y-31654651D02*
X172792573Y-31654546D01*
X172961383Y-31658007D02*
X172942635Y-31657343D01*
X201999475Y-46985233D02*
X201999460Y-46910977D01*
X172998869Y-31659546D02*
X172980127Y-31658742D01*
X173279481Y-31679999D02*
X173260810Y-31678146D01*
X173354098Y-31688111D02*
X173335454Y-31685978D01*
X190175018Y-44315601D02*
X180600708Y-35256891D01*
X201202488Y-45109351D02*
X200646688Y-44731361D01*
X201999489Y-47059482D02*
X201999475Y-46985233D01*
X180600708Y-35256891D02*
X177056038Y-32695511D01*
X172905132Y-31656224D02*
X172886377Y-31655770D01*
X173073800Y-31663462D02*
X173055073Y-31662378D01*
X201999445Y-46836715D02*
X201999430Y-46762447D01*
X173148665Y-31668496D02*
X173129955Y-31667133D01*
X173186068Y-31671433D02*
X173167369Y-31669930D01*
X173260810Y-31678146D02*
X173242133Y-31676363D01*
X173242133Y-31676363D02*
X173223451Y-31674650D01*
X208588318Y-51213951D02*
X205293958Y-51213951D01*
X200646688Y-44731361D02*
X199698348Y-44315601D01*
X172886377Y-31655770D02*
X172867620Y-31655385D01*
X201581488Y-45665041D02*
X201202488Y-45109351D01*
X201999460Y-46910977D02*
X201999445Y-46836715D01*
X172942635Y-31657343D02*
X172923885Y-31656749D01*
X201999430Y-46762447D02*
X201999414Y-46688172D01*
X172792573Y-31654546D02*
X172773808Y-31654511D01*
X173111241Y-31665839D02*
X173092523Y-31664615D01*
X173167369Y-31669930D02*
X173148665Y-31668496D01*
X173055073Y-31662378D02*
X173036342Y-31661364D01*
X202254848Y-50026331D02*
X201999668Y-48914361D01*
X201999414Y-46688172D02*
X201999398Y-46613891D01*
X173298145Y-31681922D02*
X173279481Y-31679999D01*
X173316803Y-31683915D02*
X173298145Y-31681922D01*
X172980127Y-31658742D02*
X172961383Y-31658007D01*
X203684768Y-51153751D02*
X202744138Y-50765351D01*
X172830099Y-31654826D02*
X172811337Y-31654651D01*
X173129955Y-31667133D02*
X173111241Y-31665839D01*
X172867620Y-31655385D02*
X172848860Y-31655070D01*
X173017607Y-31660420D02*
X172998869Y-31659546D01*
X205293958Y-51213951D02*
X203684768Y-51153751D01*
X201999649Y-48321005D02*
X201999643Y-48246827D01*
X208960676Y-51227762D02*
X208929709Y-51225558D01*
X208712587Y-51215488D02*
X208681530Y-51214816D01*
X209694070Y-51334686D02*
X209664445Y-51328914D01*
X208805706Y-51218655D02*
X208774676Y-51217408D01*
X208929709Y-51225558D02*
X208898728Y-51223546D01*
X209453483Y-51288890D02*
X209422864Y-51283648D01*
X209269365Y-51260273D02*
X209238590Y-51256167D01*
X201999657Y-48469355D02*
X201999653Y-48395181D01*
X201999660Y-48543527D02*
X201999657Y-48469355D01*
X208681530Y-51214816D02*
X208650466Y-51214335D01*
X208774676Y-51217408D02*
X208743636Y-51216352D01*
X209022564Y-51232741D02*
X208991628Y-51230156D01*
X209084384Y-51238483D02*
X209053483Y-51235517D01*
X201999502Y-47133726D02*
X201999489Y-47059482D01*
X208743636Y-51216352D02*
X208712587Y-51215488D01*
X209575098Y-51311552D02*
X209545158Y-51305751D01*
X201999625Y-48024275D02*
X201999617Y-47950085D01*
X201999667Y-48766031D02*
X201999665Y-48691865D01*
X201999668Y-48840197D02*
X201999667Y-48766031D01*
X201999668Y-48914361D02*
X201999668Y-48840197D01*
X208619395Y-51214047D02*
X208588318Y-51213951D01*
X209361544Y-51273730D02*
X209330843Y-51269055D01*
X209422864Y-51283648D02*
X209392218Y-51278594D01*
X208867733Y-51221724D02*
X208836725Y-51220094D01*
X209604959Y-51317346D02*
X209575098Y-51311552D01*
X209392218Y-51278594D02*
X209361544Y-51273730D01*
X201999515Y-47207965D02*
X201999502Y-47133726D01*
X209484071Y-51294322D02*
X209453483Y-51288890D01*
X201999601Y-47801695D02*
X201999592Y-47727494D01*
X209053483Y-51235517D02*
X209022564Y-51232741D01*
X209176971Y-51248523D02*
X209146128Y-51244986D01*
X209238590Y-51256167D02*
X209207791Y-51252250D01*
X209545158Y-51305751D02*
X209514630Y-51299942D01*
X201999562Y-47504866D02*
X201999551Y-47430648D01*
X201999632Y-48098462D02*
X201999625Y-48024275D01*
X209300117Y-51264569D02*
X209269365Y-51260273D01*
X209753084Y-51346206D02*
X209723616Y-51340450D01*
X201999528Y-47282198D02*
X201999515Y-47207965D01*
X201999540Y-47356425D02*
X201999528Y-47282198D01*
X208650466Y-51214335D02*
X208619395Y-51214047D01*
X209634742Y-51323133D02*
X209604959Y-51317346D01*
X209664445Y-51328914D02*
X209634742Y-51323133D01*
X201999551Y-47430648D02*
X201999540Y-47356425D01*
X201999573Y-47579080D02*
X201999562Y-47504866D01*
X201999583Y-47653289D02*
X201999573Y-47579080D01*
X201999610Y-47875892D02*
X201999601Y-47801695D01*
X201999592Y-47727494D02*
X201999583Y-47653289D01*
X201999617Y-47950085D02*
X201999610Y-47875892D01*
X201999638Y-48172646D02*
X201999632Y-48098462D01*
X201999653Y-48395181D02*
X201999649Y-48321005D01*
X209146128Y-51244986D02*
X209115266Y-51241639D01*
X209330843Y-51269055D02*
X209300117Y-51264569D01*
X230545438Y-128090271D02*
X215928428Y-119656661D01*
X201999643Y-48246827D02*
X201999638Y-48172646D01*
X201999663Y-48617696D02*
X201999660Y-48543527D01*
X201999665Y-48691865D02*
X201999663Y-48617696D01*
X208836725Y-51220094D02*
X208805706Y-51218655D01*
X209115266Y-51241639D02*
X209084384Y-51238483D01*
X208991628Y-51230156D02*
X208960676Y-51227762D01*
X209514630Y-51299942D02*
X209484071Y-51294322D01*
X208898728Y-51223546D02*
X208867733Y-51221724D01*
X209207791Y-51252250D02*
X209176971Y-51248523D01*
X209723616Y-51340450D02*
X209694070Y-51334686D01*
X210270154Y-51447761D02*
X210242087Y-51442246D01*
X210326056Y-51458738D02*
X210298143Y-51453259D01*
X212309931Y-52263577D02*
X212280175Y-52243791D01*
X210381650Y-51469639D02*
X210353892Y-51464198D01*
X210685846Y-51535749D02*
X210623936Y-51520758D01*
X210436938Y-51480461D02*
X210409333Y-51475060D01*
X210561810Y-51506544D02*
X210499475Y-51493111D01*
X210870212Y-51585358D02*
X210808991Y-51568052D01*
X211291528Y-51727784D02*
X211232163Y-51705177D01*
X212033998Y-52088477D02*
X211978998Y-52056402D01*
X212368425Y-52302620D02*
X212339347Y-52283187D01*
X209870170Y-51369131D02*
X209841016Y-51363415D01*
X212508788Y-52397043D02*
X212481381Y-52378531D01*
X210014769Y-51397533D02*
X209986005Y-51391878D01*
X210043455Y-51403175D02*
X210014769Y-51397533D01*
X210072064Y-51408802D02*
X210043455Y-51403175D01*
X210808991Y-51568052D02*
X210747534Y-51551514D01*
X211172513Y-51683319D02*
X211112583Y-51662212D01*
X212142836Y-52154749D02*
X212088613Y-52121261D01*
X210129048Y-51420014D02*
X210100594Y-51414415D01*
X211755287Y-51935239D02*
X211698468Y-51906748D01*
X212425572Y-52340944D02*
X212397166Y-52321873D01*
X212280175Y-52243791D02*
X212250078Y-52223831D01*
X210100594Y-51414415D02*
X210072064Y-51408802D01*
X210157424Y-51425596D02*
X210129048Y-51420014D01*
X211350599Y-51751136D02*
X211291528Y-51727784D01*
X211525980Y-51825639D02*
X211467832Y-51800066D01*
X212196660Y-52188940D02*
X212142836Y-52154749D01*
X212250078Y-52223831D02*
X212196660Y-52188940D01*
X212453643Y-52359831D02*
X212425572Y-52340944D01*
X210747534Y-51551514D02*
X210685846Y-51535749D01*
X211052381Y-51641860D02*
X210991914Y-51622265D01*
X211811757Y-51964453D02*
X211755287Y-51935239D01*
X211232163Y-51705177D02*
X211172513Y-51683319D01*
X211583807Y-51851945D02*
X211525980Y-51825639D01*
X211698468Y-51906748D02*
X211641305Y-51878982D01*
X211978998Y-52056402D02*
X211923620Y-52025037D01*
X209782473Y-51351952D02*
X209753084Y-51346206D01*
X209811783Y-51357689D02*
X209782473Y-51351952D01*
X210623936Y-51520758D02*
X210561810Y-51506544D01*
X209957163Y-51386210D02*
X209928243Y-51380529D01*
X210931188Y-51603430D02*
X210870212Y-51585358D01*
X210353892Y-51464198D02*
X210326056Y-51458738D01*
X212339347Y-52283187D02*
X212309931Y-52263577D01*
X209928243Y-51380529D02*
X209899246Y-51374836D01*
X210499475Y-51493111D02*
X210436938Y-51480461D01*
X211923620Y-52025037D02*
X211867870Y-51994387D01*
X211467832Y-51800066D02*
X211409369Y-51775231D01*
X210991914Y-51622265D02*
X210931188Y-51603430D01*
X212481381Y-52378531D02*
X212453643Y-52359831D01*
X211409369Y-51775231D02*
X211350599Y-51751136D01*
X212397166Y-52321873D02*
X212368425Y-52302620D01*
X210213943Y-51436713D02*
X210185722Y-51431163D01*
X211641305Y-51878982D02*
X211583807Y-51851945D01*
X210298143Y-51453259D02*
X210270154Y-51447761D01*
X210242087Y-51442246D02*
X210213943Y-51436713D01*
X211867870Y-51994387D02*
X211811757Y-51964453D01*
X210409333Y-51475060D02*
X210381650Y-51469639D01*
X211112583Y-51662212D02*
X211052381Y-51641860D01*
X212088613Y-52121261D02*
X212033998Y-52088477D01*
X209841016Y-51363415D02*
X209811783Y-51357689D01*
X209899246Y-51374836D02*
X209870170Y-51369131D01*
X209986005Y-51391878D02*
X209957163Y-51386210D01*
X210185722Y-51431163D02*
X210157424Y-51425596D01*
X213506140Y-53116477D02*
X213460648Y-53077609D01*
X213129319Y-52820752D02*
X213080200Y-52786286D01*
X214518034Y-54299152D02*
X214499663Y-54272306D01*
X213321375Y-52964230D02*
X213274033Y-52927527D01*
X214536199Y-54325737D02*
X214518034Y-54299152D01*
X213274033Y-52927527D02*
X213226240Y-52891377D01*
X214052782Y-53668394D02*
X214013802Y-53622980D01*
X213639756Y-53236245D02*
X213595699Y-53195800D01*
X213893709Y-53489617D02*
X213852643Y-53446137D01*
X214424087Y-54162348D02*
X214404661Y-54134222D01*
X214404661Y-54134222D02*
X214385019Y-54105842D01*
X213368261Y-53001481D02*
X213321375Y-52964230D01*
X213460648Y-53077609D02*
X213414687Y-53039275D01*
X214345078Y-54048331D02*
X214310484Y-53999264D01*
X213595699Y-53195800D02*
X213551159Y-53155875D01*
X214013802Y-53622980D02*
X213974293Y-53578043D01*
X214239608Y-53902457D02*
X214203335Y-53854727D01*
X213683326Y-53277208D02*
X213639756Y-53236245D01*
X213768987Y-53360666D02*
X213726405Y-53318683D01*
X213852643Y-53446137D02*
X213811068Y-53403152D01*
X214499663Y-54272306D02*
X214481085Y-54245202D01*
X214091231Y-53714280D02*
X214052782Y-53668394D01*
X213551159Y-53155875D02*
X213506140Y-53116477D01*
X214365158Y-54077212D02*
X214345078Y-54048331D01*
X212535864Y-52415365D02*
X212508788Y-52397043D01*
X212562612Y-52433494D02*
X212535864Y-52415365D01*
X212691469Y-52521178D02*
X212666344Y-52504043D01*
X213178001Y-52855784D02*
X213129319Y-52820752D01*
X213226240Y-52891377D02*
X213178001Y-52855784D01*
X214203335Y-53854727D02*
X214166512Y-53807451D01*
X213811068Y-53403152D02*
X213768987Y-53360666D01*
X212989424Y-52724487D02*
X212968359Y-52710184D01*
X213010187Y-52738556D02*
X212989424Y-52724487D01*
X214275326Y-53950638D02*
X214239608Y-53902457D01*
X214385019Y-54105842D02*
X214365158Y-54077212D01*
X214443299Y-54190222D02*
X214424087Y-54162348D01*
X214481085Y-54245202D02*
X214462298Y-54217840D01*
X212589033Y-52451429D02*
X212562612Y-52433494D01*
X214166512Y-53807451D02*
X214129142Y-53760634D01*
X212666344Y-52504043D02*
X212640897Y-52486705D01*
X212615128Y-52469166D02*
X212589033Y-52451429D01*
X212640897Y-52486705D02*
X212615128Y-52469166D01*
X212716273Y-52538107D02*
X212691469Y-52521178D01*
X212740758Y-52554830D02*
X212716273Y-52538107D01*
X212946990Y-52695651D02*
X212925315Y-52680890D01*
X213414687Y-53039275D02*
X213368261Y-53001481D01*
X214554160Y-54352062D02*
X214536199Y-54325737D01*
X212764926Y-52571342D02*
X212740758Y-52554830D01*
X214462298Y-54217840D02*
X214443299Y-54190222D01*
X212788777Y-52587644D02*
X212764926Y-52571342D01*
X212812313Y-52603731D02*
X212788777Y-52587644D01*
X214129142Y-53760634D02*
X214091231Y-53714280D01*
X213726405Y-53318683D02*
X213683326Y-53277208D01*
X213974293Y-53578043D02*
X213934260Y-53533588D01*
X212835535Y-52619603D02*
X212812313Y-52603731D01*
X212858445Y-52635257D02*
X212835535Y-52619603D01*
X213934260Y-53533588D02*
X213893709Y-53489617D01*
X212903334Y-52665903D02*
X212881044Y-52650691D01*
X212881044Y-52650691D02*
X212858445Y-52635257D01*
X212925315Y-52680890D02*
X212903334Y-52665903D01*
X212968359Y-52710184D02*
X212946990Y-52695651D01*
X213030648Y-52752391D02*
X213010187Y-52738556D01*
X213080200Y-52786286D02*
X213030648Y-52752391D01*
X214310484Y-53999264D02*
X214275326Y-53950638D01*
X215604446Y-56450409D02*
X215588555Y-56388210D01*
X215695862Y-56875275D02*
X215689210Y-56842269D01*
X215715312Y-56972604D02*
X215708911Y-56940443D01*
X215455540Y-55959847D02*
X215433464Y-55899742D01*
X215554423Y-56264530D02*
X215536190Y-56203063D01*
X214844570Y-54779809D02*
X214829981Y-54758401D01*
X215012920Y-55037455D02*
X214979062Y-54982914D01*
X215362692Y-55721219D02*
X215337597Y-55662333D01*
X214815219Y-54736708D02*
X214800284Y-54714733D01*
X215588555Y-56388210D02*
X215571879Y-56326249D01*
X214944493Y-54928781D02*
X214909218Y-54875065D01*
X215647388Y-56638351D02*
X215633866Y-56575486D01*
X214800284Y-54714733D02*
X214785172Y-54692477D01*
X214858988Y-54800933D02*
X214844570Y-54779809D01*
X215721632Y-57004483D02*
X215715312Y-56972604D01*
X215387037Y-55780421D02*
X215362692Y-55721219D01*
X214979062Y-54982914D02*
X214944493Y-54928781D01*
X215141186Y-55259564D02*
X215110200Y-55203459D01*
X215078492Y-55147735D02*
X215046064Y-55092398D01*
X215229777Y-55430086D02*
X215200978Y-55372884D01*
X215497401Y-56080910D02*
X215476853Y-56020239D01*
X215517181Y-56141854D02*
X215497401Y-56080910D01*
X215337597Y-55662333D02*
X215311755Y-55603769D01*
X215702428Y-56908000D02*
X215695862Y-56875275D01*
X215675641Y-56775414D02*
X215668720Y-56741567D01*
X215682471Y-56808982D02*
X215675641Y-56775414D01*
X215708911Y-56940443D02*
X215702428Y-56908000D01*
X215410628Y-55839931D02*
X215387037Y-55780421D01*
X215571879Y-56326249D02*
X215554423Y-56264530D01*
X215619551Y-56512836D02*
X215604446Y-56450409D01*
X215689210Y-56842269D02*
X215682471Y-56808982D01*
X214909218Y-54875065D02*
X214873238Y-54821771D01*
X215476853Y-56020239D02*
X215455540Y-55959847D01*
X215661706Y-56707441D02*
X215654596Y-56673035D01*
X215727875Y-57036079D02*
X215721632Y-57004483D01*
X215311755Y-55603769D02*
X215285169Y-55545535D01*
X215171446Y-55316041D02*
X215141186Y-55259564D01*
X214571918Y-54378124D02*
X214554160Y-54352062D01*
X214589476Y-54403922D02*
X214571918Y-54378124D01*
X214606835Y-54429456D02*
X214589476Y-54403922D01*
X214623998Y-54454723D02*
X214606835Y-54429456D01*
X214640965Y-54479722D02*
X214623998Y-54454723D01*
X214657738Y-54504453D02*
X214640965Y-54479722D01*
X214674320Y-54528914D02*
X214657738Y-54504453D01*
X215046064Y-55092398D02*
X215012920Y-55037455D01*
X214690712Y-54553104D02*
X214674320Y-54528914D01*
X214706916Y-54577021D02*
X214690712Y-54553104D01*
X214722933Y-54600665D02*
X214706916Y-54577021D01*
X214738765Y-54624033D02*
X214722933Y-54600665D01*
X214754415Y-54647126D02*
X214738765Y-54624033D01*
X214769883Y-54669940D02*
X214754415Y-54647126D01*
X214785172Y-54692477D02*
X214769883Y-54669940D01*
X214829981Y-54758401D02*
X214815219Y-54736708D01*
X215110200Y-55203459D02*
X215078492Y-55147735D01*
X215668720Y-56741567D02*
X215661706Y-56707441D01*
X214873238Y-54821771D02*
X214858988Y-54800933D01*
X215654596Y-56673035D02*
X215647388Y-56638351D01*
X215200978Y-55372884D02*
X215171446Y-55316041D01*
X215633866Y-56575486D02*
X215619551Y-56512836D01*
X215734043Y-57067391D02*
X215727875Y-57036079D01*
X215257842Y-55487638D02*
X215229777Y-55430086D01*
X215285169Y-55545535D02*
X215257842Y-55487638D01*
X215433464Y-55899742D02*
X215410628Y-55839931D01*
X215536190Y-56203063D02*
X215517181Y-56141854D01*
X76222521Y-44684451D02*
X76200000Y-44704000D01*
X76244319Y-44665623D02*
X76222521Y-44684451D01*
X76265392Y-44647512D02*
X76244319Y-44665623D01*
X76342351Y-44582150D02*
X76324218Y-44597436D01*
X76285735Y-44630113D02*
X76265392Y-44647512D01*
X76305345Y-44613423D02*
X76285735Y-44630113D01*
X76324218Y-44597436D02*
X76305345Y-44613423D01*
X76044367Y-44842145D02*
X76025089Y-44859898D01*
X76063739Y-44824491D02*
X76044367Y-44842145D01*
X76083204Y-44806936D02*
X76063739Y-44824491D01*
X76102762Y-44789481D02*
X76083204Y-44806936D01*
X76176760Y-44724273D02*
X76152805Y-44745275D01*
X76128138Y-44767009D02*
X76102762Y-44789481D01*
X76152805Y-44745275D02*
X76128138Y-44767009D01*
X76200000Y-44704000D02*
X76176760Y-44724273D01*
M02*
