M48
INCH,TZ
T1C0.016
T2C0.020
T3C0.030
T4C0.031
T5C0.032
T6C0.035
T7C0.039
T8C0.043
T9C0.059
T10C0.060
%
G90
G05
T1
X3.145Y-2.645
X3.145Y-2.785
X3.145Y-3.385
X3.145Y-4.1
X3.145Y-4.685
X3.16Y-3.34
X3.17Y-4.31
X3.17Y-5.055
X3.175Y-3.15
X3.18Y-3.585
X3.19Y-2.595
X3.21Y-2.425
X3.225Y-3.535
X3.23Y-4.855
X3.255Y-4.12
X3.275Y-2.645
X3.275Y-3.94
X3.28Y-2.43
X3.28Y-2.59
X3.285Y-4.89
X3.31Y-2.34
X3.585Y-5.545
X3.655Y-2.02
X3.665Y-4.65
X3.665Y-4.995
X3.685Y-2.485
X3.685Y-3.235
X3.685Y-3.985
X3.755Y-2.2158
X3.755Y-2.3442
X3.755Y-2.9708
X3.755Y-3.0992
X3.755Y-3.36
X3.755Y-3.7158
X3.755Y-3.8442
X3.755Y-4.095
X3.755Y-4.4458
X3.755Y-4.5742
X3.795Y-5.555
X3.82Y-5.445
X3.845Y-2.2158
X3.845Y-2.3442
X3.845Y-2.9708
X3.845Y-3.0992
X3.845Y-3.7158
X3.845Y-3.8442
X3.845Y-4.4458
X3.845Y-4.5742
X3.855Y-4.795
X3.9Y-4.59
X3.935Y-4.735
X3.985Y-5.54
X4.085Y-1.905
X4.1058Y-4.86
X4.1058Y-4.955
X4.1108Y-2.61
X4.1108Y-3.36
X4.1158Y-4.11
X4.1158Y-4.205
X4.2342Y-4.86
X4.2342Y-4.955
X4.2392Y-2.61
X4.2392Y-3.36
X4.2442Y-4.11
X4.2442Y-4.205
X4.2913Y-1.8517
X4.2913Y-1.9367
X4.335Y-2.35
X4.37Y-1.8517
X4.37Y-1.9367
X4.425Y-4.435
X4.44Y-4.805
X4.4487Y-1.8517
X4.4487Y-1.9367
X4.45Y-5.54
X4.505Y-2.2158
X4.505Y-2.3442
X4.505Y-2.9708
X4.505Y-3.0992
X4.505Y-3.7158
X4.505Y-3.8442
X4.505Y-4.4658
X4.505Y-4.5942
X4.505Y-5.0358
X4.505Y-5.1642
X4.59Y-2.9708
X4.59Y-3.0992
X4.595Y-2.2158
X4.595Y-2.3442
X4.595Y-4.4658
X4.595Y-4.5942
X4.595Y-5.0358
X4.595Y-5.1642
X4.62Y-3.795
X4.62Y-4.04
X4.625Y-5.385
X4.65Y-2.58
X4.655Y-2.3
X4.655Y-2.42
X4.68Y-5.535
X4.72Y-5.295
X4.725Y-4.09
X4.765Y-5.51
X4.77Y-1.775
X4.78Y-2.2
X4.78Y-2.36
X4.79Y-4.82
X4.845Y-5.445
X4.8608Y-2.425
X4.8608Y-3.175
X4.8608Y-3.925
X4.8608Y-4.675
X4.8608Y-4.765
X4.9892Y-2.425
X4.9892Y-3.175
X4.9892Y-3.925
X4.9892Y-4.675
X4.9892Y-4.765
X5.05Y-2.2
X5.06Y-3.255
X5.18Y-2.36
X5.245Y-2.235
X5.255Y-2.7808
X5.255Y-2.9092
X5.255Y-3.5358
X5.255Y-3.6642
X5.255Y-4.1708
X5.255Y-4.2992
X5.275Y-2.4
X5.285Y-1.835
X5.32Y-2.1
X5.34Y-5.45
X5.345Y-4.9408
X5.345Y-5.0692
X5.435Y-3.
X5.455Y-2.255
X5.47Y-2.2
X5.505Y-2.065
X5.515Y-2.955
X5.525Y-5.27
X5.545Y-2.215
X5.545Y-5.54
X5.56Y-4.725
X5.6108Y-2.33
X5.6108Y-3.08
X5.6108Y-3.83
X5.62Y-1.695
X5.6258Y-4.58
X5.6258Y-4.675
X5.64Y-5.51
X5.685Y-1.88
X5.735Y-5.445
X5.7392Y-2.33
X5.7392Y-3.08
X5.7392Y-3.83
X5.7542Y-4.58
X5.7542Y-4.675
X5.795Y-2.19
X5.885Y-2.15
X6.Y-3.5958
X6.Y-3.7242
X6.005Y-2.9158
X6.005Y-3.0442
X6.005Y-4.1858
X6.005Y-4.3142
X6.025Y-4.51
X6.03Y-2.2
X6.055Y-1.7
X6.09Y-4.765
X6.125Y-4.825
X6.205Y-2.535
X6.21Y-2.24
X6.215Y-5.52
X6.29Y-5.275
X6.3608Y-2.425
X6.3608Y-3.175
X6.3608Y-3.925
X6.3608Y-4.675
X6.3608Y-4.765
X6.39Y-4.82
X6.42Y-5.535
X6.43Y-4.9
X6.435Y-5.415
X6.47Y-4.985
X6.4892Y-2.425
X6.4892Y-3.175
X6.4892Y-3.925
X6.4892Y-4.675
X6.4892Y-4.765
X6.545Y-5.325
X6.595Y-5.535
X6.61Y-2.2
X6.645Y-2.565
X6.65Y-5.475
X6.665Y-2.3
X6.665Y-4.91
X6.7Y-4.955
X6.75Y-2.9708
X6.75Y-3.0992
X6.75Y-3.6158
X6.75Y-3.7442
X6.755Y-4.3758
X6.755Y-4.5042
X6.795Y-2.5
X6.795Y-2.71
X6.835Y-2.1408
X6.835Y-2.2692
X6.845Y-4.3758
X6.845Y-4.5042
X6.85Y-2.9708
X6.85Y-3.0992
X6.85Y-3.6158
X6.85Y-3.7442
X6.85Y-4.135
X6.855Y-2.695
X6.895Y-2.29
X6.895Y-2.515
X6.905Y-5.555
X6.935Y-2.775
X6.935Y-2.87
X6.945Y-2.28
X6.9826Y-4.9729
X7.04Y-2.665
X7.0938Y-5.0371
X7.1108Y-2.515
X7.1108Y-2.61
X7.1108Y-3.265
X7.1108Y-4.02
X7.1108Y-4.74
X7.1129Y-5.5038
X7.1771Y-5.3926
X7.185Y-4.975
X7.22Y-5.575
X7.2229Y-5.4988
X7.2392Y-2.515
X7.2392Y-2.61
X7.2392Y-3.265
X7.2392Y-4.02
X7.2392Y-4.74
X7.2871Y-5.3876
X7.305Y-5.16
X7.345Y-3.36
X7.395Y-5.725
X7.44Y-4.075
X7.45Y-3.305
X7.47Y-5.155
X7.48Y-4.985
X7.5Y-2.025
X7.505Y-2.8808
X7.505Y-3.0092
X7.505Y-3.4708
X7.505Y-3.5992
X7.505Y-4.0058
X7.505Y-4.1342
X7.585Y-5.915
X7.595Y-2.8808
X7.595Y-3.0092
X7.595Y-3.26
X7.595Y-3.4708
X7.595Y-3.5992
X7.595Y-4.0058
X7.595Y-4.1342
X7.5979Y-4.9238
X7.6158Y-4.475
X7.6158Y-4.575
X7.625Y-5.745
X7.645Y-3.955
X7.645Y-4.23
X7.65Y-3.215
X7.65Y-3.515
X7.6621Y-4.8126
X7.7442Y-4.475
X7.7442Y-4.575
X7.76Y-5.825
X7.78Y-5.585
X7.795Y-4.82
X7.825Y-5.255
X7.84Y-5.505
X7.84Y-5.645
X7.881Y-5.405
X7.925Y-5.455
X7.95Y-5.315
X7.965Y-5.265
X7.9712Y-6.2379
X8.03Y-2.9
X8.0429Y-5.5974
X8.0824Y-6.3021
X8.09Y-3.62
X8.1Y-4.425
X8.105Y-5.175
X8.1071Y-5.4862
X8.125Y-4.67
X8.13Y-2.72
X8.13Y-2.9
X8.13Y-4.29
X8.17Y-4.44
X8.185Y-3.09
X8.185Y-3.63
X8.19Y-3.47
X8.19Y-3.835
X8.205Y-4.48
X8.215Y-2.915
X8.36Y-6.175
X8.6112Y-5.1079
X8.705Y-5.46
X8.7224Y-5.1721
T2
X4.6256Y-1.72
X4.7044Y-1.72
T3
X3.6866Y-1.895
X3.785Y-1.895
X3.8834Y-1.895
X5.5716Y-1.56
X5.7684Y-1.56
X6.3116Y-1.56
X6.5084Y-1.56
X6.8666Y-1.8
X6.965Y-1.8
X7.0634Y-1.8
T4
X3.755Y-2.08
X3.755Y-2.48
X3.755Y-2.835
X3.755Y-3.235
X3.755Y-3.58
X3.755Y-3.98
X3.755Y-4.31
X3.755Y-4.71
X3.845Y-2.08
X3.845Y-2.48
X3.845Y-2.835
X3.845Y-3.235
X3.845Y-3.58
X3.845Y-3.98
X3.845Y-4.31
X3.845Y-4.71
X3.97Y-4.86
X3.97Y-4.955
X3.975Y-2.61
X3.975Y-3.36
X3.98Y-4.11
X3.98Y-4.205
X4.055Y-1.835
X4.37Y-4.86
X4.37Y-4.955
X4.375Y-2.61
X4.375Y-3.36
X4.38Y-4.11
X4.38Y-4.205
X4.4489Y-1.7655
X4.505Y-2.08
X4.505Y-2.48
X4.505Y-2.835
X4.505Y-3.235
X4.505Y-3.58
X4.505Y-3.98
X4.505Y-4.33
X4.505Y-4.73
X4.505Y-4.9
X4.505Y-5.3
X4.59Y-2.835
X4.59Y-3.235
X4.595Y-2.08
X4.595Y-2.48
X4.595Y-4.33
X4.595Y-4.73
X4.595Y-4.9
X4.595Y-5.3
X4.725Y-2.425
X4.725Y-3.175
X4.725Y-3.925
X4.725Y-4.675
X4.725Y-4.765
X5.125Y-2.425
X5.125Y-3.175
X5.125Y-3.925
X5.125Y-4.675
X5.125Y-4.765
X5.255Y-2.645
X5.255Y-3.045
X5.255Y-3.4
X5.255Y-3.8
X5.255Y-4.035
X5.255Y-4.435
X5.265Y-1.62
X5.265Y-2.02
X5.345Y-4.805
X5.345Y-5.205
X5.475Y-2.33
X5.475Y-3.08
X5.475Y-3.83
X5.49Y-4.58
X5.49Y-4.675
X5.875Y-2.33
X5.875Y-3.08
X5.875Y-3.83
X5.89Y-4.58
X5.89Y-4.675
X6.Y-3.46
X6.Y-3.86
X6.005Y-2.78
X6.005Y-3.18
X6.005Y-4.05
X6.005Y-4.45
X6.225Y-2.425
X6.225Y-3.175
X6.225Y-3.925
X6.225Y-4.675
X6.225Y-4.765
X6.625Y-2.425
X6.625Y-3.175
X6.625Y-3.925
X6.625Y-4.675
X6.625Y-4.765
X6.75Y-2.835
X6.75Y-3.235
X6.75Y-3.48
X6.75Y-3.88
X6.755Y-4.24
X6.755Y-4.64
X6.835Y-2.005
X6.835Y-2.405
X6.845Y-4.24
X6.845Y-4.64
X6.85Y-2.835
X6.85Y-3.235
X6.85Y-3.48
X6.85Y-3.88
X6.865Y-4.905
X6.975Y-2.515
X6.975Y-2.61
X6.975Y-3.265
X6.975Y-4.02
X6.975Y-4.74
X7.045Y-5.6214
X7.155Y-5.6164
X7.2114Y-5.105
X7.245Y-5.275
X7.355Y-5.27
X7.375Y-2.515
X7.375Y-2.61
X7.375Y-3.265
X7.375Y-4.02
X7.375Y-4.74
X7.48Y-4.475
X7.48Y-4.575
X7.505Y-2.745
X7.505Y-3.145
X7.505Y-3.335
X7.505Y-3.735
X7.505Y-3.87
X7.505Y-4.27
X7.53Y-5.0414
X7.595Y-2.745
X7.595Y-3.145
X7.595Y-3.335
X7.595Y-3.735
X7.595Y-3.87
X7.595Y-4.27
X7.73Y-4.695
X7.8536Y-6.17
X7.88Y-4.475
X7.88Y-4.575
X7.975Y-5.715
X8.175Y-5.3686
X8.2Y-6.37
X8.4936Y-5.04
X8.84Y-5.24
T5
X5.375Y-1.55
X5.375Y-1.65
X5.375Y-1.75
X5.375Y-1.85
X5.375Y-1.95
X5.375Y-2.05
X5.375Y-2.15
X5.375Y-2.25
X5.375Y-2.35
X5.375Y-2.45
X5.375Y-2.55
X5.375Y-2.65
X5.975Y-1.55
X5.975Y-1.65
X5.975Y-1.75
X5.975Y-1.85
X5.975Y-1.95
X5.975Y-2.05
X5.975Y-2.15
X5.975Y-2.25
X5.975Y-2.35
X5.975Y-2.45
X5.975Y-2.55
X5.975Y-2.65
X6.125Y-1.55
X6.125Y-1.65
X6.125Y-1.75
X6.125Y-1.85
X6.125Y-1.95
X6.125Y-2.05
X6.125Y-2.15
X6.125Y-2.25
X6.125Y-2.35
X6.125Y-2.45
X6.125Y-2.55
X6.125Y-2.65
X6.725Y-1.55
X6.725Y-1.65
X6.725Y-1.75
X6.725Y-1.85
X6.725Y-1.95
X6.725Y-2.05
X6.725Y-2.15
X6.725Y-2.25
X6.725Y-2.35
X6.725Y-2.45
X6.725Y-2.55
X6.725Y-2.65
T7
X3.375Y-2.4825
X3.375Y-3.2325
X3.375Y-3.9825
X3.375Y-4.7325
X3.375Y-5.4825
X3.475Y-2.4825
X3.475Y-3.2325
X3.475Y-3.9825
X3.475Y-4.7325
X3.475Y-5.4825
X4.125Y-2.4825
X4.125Y-3.2325
X4.125Y-3.9825
X4.125Y-4.7325
X4.125Y-5.4825
X4.225Y-2.4825
X4.225Y-3.2325
X4.225Y-3.9825
X4.225Y-4.7325
X4.225Y-5.4825
X4.875Y-2.295
X4.875Y-3.045
X4.875Y-3.795
X4.875Y-4.545
X4.875Y-5.295
X4.975Y-2.295
X4.975Y-3.045
X4.975Y-3.795
X4.975Y-4.545
X4.975Y-5.295
X5.625Y-2.2012
X5.625Y-2.9512
X5.625Y-3.7012
X5.625Y-4.4512
X5.625Y-5.2012
X5.725Y-2.2012
X5.725Y-2.9512
X5.725Y-3.7012
X5.725Y-4.4512
X5.725Y-5.2012
X5.925Y-4.895
X6.025Y-4.895
X6.375Y-2.3
X6.375Y-3.045
X6.375Y-3.795
X6.375Y-4.545
X6.475Y-2.3
X6.475Y-3.045
X6.475Y-3.795
X6.475Y-4.545
X7.0101Y-5.4258
X7.0601Y-5.3392
X7.125Y-2.3887
X7.125Y-3.1387
X7.125Y-3.8887
X7.125Y-4.6387
X7.225Y-2.3887
X7.225Y-3.1387
X7.225Y-3.8887
X7.225Y-4.6387
X7.3132Y-5.6008
X7.3632Y-5.5142
X7.6882Y-4.9513
X7.7382Y-4.8647
X7.875Y-2.7637
X7.875Y-3.5137
X7.875Y-4.2637
X7.9627Y-5.9758
X7.975Y-2.7637
X7.975Y-3.5137
X7.975Y-4.2637
X8.0127Y-5.8892
X8.3377Y-5.3263
X8.3877Y-5.2397
X8.4966Y-5.851
X8.5466Y-5.7644
T8
X5.5322Y-1.6584
X5.8078Y-1.6584
X6.2722Y-1.6584
X6.5478Y-1.6584
T9
X3.275Y-2.1825
X3.275Y-2.9325
X3.275Y-3.6825
X3.275Y-4.4325
X3.275Y-5.1825
X3.575Y-2.1825
X3.575Y-2.9325
X3.575Y-3.6825
X3.575Y-4.4325
X3.575Y-5.1825
X4.025Y-2.1825
X4.025Y-2.9325
X4.025Y-3.6825
X4.025Y-4.4325
X4.025Y-5.1825
X4.325Y-2.1825
X4.325Y-2.9325
X4.325Y-3.6825
X4.325Y-4.4325
X4.325Y-5.1825
X4.775Y-1.995
X4.775Y-2.745
X4.775Y-3.495
X4.775Y-4.245
X4.775Y-4.995
X5.075Y-1.995
X5.075Y-2.745
X5.075Y-3.495
X5.075Y-4.245
X5.075Y-4.995
X5.525Y-1.9012
X5.525Y-2.6513
X5.525Y-3.4013
X5.525Y-4.1513
X5.525Y-4.9013
X5.825Y-1.9012
X5.825Y-2.6513
X5.825Y-3.4013
X5.825Y-4.1513
X5.825Y-4.9013
X5.825Y-5.195
X6.125Y-5.195
X6.275Y-1.995
X6.275Y-2.745
X6.275Y-3.495
X6.275Y-4.245
X6.575Y-1.995
X6.575Y-2.745
X6.575Y-3.495
X6.575Y-4.245
X6.7003Y-5.3624
X6.8503Y-5.1026
X7.025Y-2.0888
X7.025Y-2.8388
X7.025Y-3.5888
X7.025Y-4.3388
X7.325Y-2.0888
X7.325Y-2.8388
X7.325Y-3.5888
X7.325Y-4.3388
X7.523Y-5.8374
X7.5373Y-5.4126
X7.673Y-5.5776
X7.6873Y-5.1528
X7.775Y-2.4638
X7.775Y-3.2138
X7.775Y-3.9638
X7.898Y-5.1879
X8.048Y-4.9281
X8.075Y-2.4638
X8.075Y-3.2138
X8.075Y-3.9638
X8.1725Y-6.2124
X8.1868Y-5.7876
X8.3225Y-5.9526
X8.3368Y-5.5278
X8.5475Y-5.5629
X8.6975Y-5.3031
T6
X7.4989Y-2.1931G85X7.4989Y-2.2167
G05
X7.68Y-1.8742G85X7.68Y-1.8978
G05
X7.68Y-1.9923G85X7.68Y-2.0159
G05
X7.68Y-2.1498G85X7.68Y-2.1734
G05
X7.8611Y-2.1931G85X7.8611Y-2.2167
G05
T10
X3.3258Y-2.1257G85X3.3258Y-2.0849
G05
X3.3258Y-2.8757G85X3.3258Y-2.8349
G05
X3.3258Y-3.6257G85X3.3258Y-3.5849
G05
X3.3258Y-4.3757G85X3.3258Y-4.3349
G05
X3.3258Y-5.1257G85X3.3258Y-5.0849
G05
X3.5242Y-2.1257G85X3.5242Y-2.0849
G05
X3.5242Y-2.8757G85X3.5242Y-2.8349
G05
X3.5242Y-3.6257G85X3.5242Y-3.5849
G05
X3.5242Y-4.3757G85X3.5242Y-4.3349
G05
X3.5242Y-5.1257G85X3.5242Y-5.0849
G05
X4.0758Y-2.0849G85X4.0758Y-2.1257
G05
X4.0758Y-2.8349G85X4.0758Y-2.8757
G05
X4.0758Y-3.5849G85X4.0758Y-3.6257
G05
X4.0758Y-4.3349G85X4.0758Y-4.3757
G05
X4.0758Y-5.0849G85X4.0758Y-5.1257
G05
X4.2742Y-2.0849G85X4.2742Y-2.1257
G05
X4.2742Y-2.8349G85X4.2742Y-2.8757
G05
X4.2742Y-3.5849G85X4.2742Y-3.6257
G05
X4.2742Y-4.3349G85X4.2742Y-4.3757
G05
X4.2742Y-5.0849G85X4.2742Y-5.1257
G05
X4.8258Y-1.9382G85X4.8258Y-1.8974
G05
X4.8258Y-2.6882G85X4.8258Y-2.6474
G05
X4.8258Y-3.3974G85X4.8258Y-3.4382
G05
X4.8258Y-4.1474G85X4.8258Y-4.1882
G05
X4.8258Y-4.9382G85X4.8258Y-4.8974
G05
X5.0242Y-1.9382G85X5.0242Y-1.8974
G05
X5.0242Y-2.6882G85X5.0242Y-2.6474
G05
X5.0242Y-3.3974G85X5.0242Y-3.4382
G05
X5.0242Y-4.1474G85X5.0242Y-4.1882
G05
X5.0242Y-4.9382G85X5.0242Y-4.8974
G05
X5.5758Y-1.8037G85X5.5758Y-1.8445
G05
X5.5758Y-2.5537G85X5.5758Y-2.5945
G05
X5.5758Y-3.3037G85X5.5758Y-3.3445
G05
X5.5758Y-4.0537G85X5.5758Y-4.0945
G05
X5.5758Y-4.8445G85X5.5758Y-4.8037
G05
X5.7742Y-1.8037G85X5.7742Y-1.8445
G05
X5.7742Y-2.5537G85X5.7742Y-2.5945
G05
X5.7742Y-3.3037G85X5.7742Y-3.3445
G05
X5.7742Y-4.0537G85X5.7742Y-4.0945
G05
X5.7742Y-4.8445G85X5.7742Y-4.8037
G05
X5.8758Y-5.2926G85X5.8758Y-5.2518
G05
X6.0742Y-5.2926G85X6.0742Y-5.2518
G05
X6.3258Y-1.8974G85X6.3258Y-1.9382
G05
X6.3258Y-2.6474G85X6.3258Y-2.6882
G05
X6.3258Y-3.3974G85X6.3258Y-3.4382
G05
X6.3258Y-4.1474G85X6.3258Y-4.1882
G05
X6.5242Y-1.8974G85X6.5242Y-1.9382
G05
X6.5242Y-2.6474G85X6.5242Y-2.6882
G05
X6.5242Y-3.3974G85X6.5242Y-3.4382
G05
X6.5242Y-4.1474G85X6.5242Y-4.1882
G05
X6.6412Y-5.2696G85X6.6765Y-5.29
G05
X6.7404Y-5.0978G85X6.7757Y-5.1182
G05
X7.0758Y-1.9912G85X7.0758Y-2.032
G05
X7.0758Y-2.782G85X7.0758Y-2.7412
G05
X7.0758Y-3.532G85X7.0758Y-3.4912
G05
X7.0758Y-4.282G85X7.0758Y-4.2412
G05
X7.2742Y-1.9912G85X7.2742Y-2.032
G05
X7.2742Y-2.782G85X7.2742Y-2.7412
G05
X7.2742Y-3.532G85X7.2742Y-3.4912
G05
X7.2742Y-4.282G85X7.2742Y-4.2412
G05
X7.4782Y-5.3199G85X7.5136Y-5.3403
G05
X7.5774Y-5.148G85X7.6128Y-5.1684
G05
X7.6329Y-5.8422G85X7.5976Y-5.8218
G05
X7.7321Y-5.6704G85X7.6968Y-5.6499
G05
X7.8258Y-2.3662G85X7.8258Y-2.407
G05
X7.8258Y-3.1162G85X7.8258Y-3.157
G05
X7.8258Y-3.8662G85X7.8258Y-3.907
G05
X8.0079Y-5.1927G85X7.9726Y-5.1723
G05
X8.0242Y-2.3662G85X8.0242Y-2.407
G05
X8.0242Y-3.1162G85X8.0242Y-3.157
G05
X8.0242Y-3.8662G85X8.0242Y-3.907
G05
X8.1071Y-5.0208G85X8.0718Y-5.0004
G05
X8.1277Y-5.6949G85X8.1631Y-5.7153
G05
X8.2269Y-5.523G85X8.2623Y-5.5434
G05
X8.2824Y-6.2172G85X8.2471Y-6.1968
G05
X8.3817Y-6.0454G85X8.3463Y-6.0249
G05
X8.6574Y-5.5677G85X8.6221Y-5.5473
G05
X8.7567Y-5.3958G85X8.7213Y-5.3754
G05
T0
M30
